<?xml version="1.0" encoding="utf-8"?>
<!-- Generator: Adobe Illustrator 26.3.0, SVG Export Plug-In . SVG Version: 6.00 Build 0)  -->
<svg version="1.1" id="Layer_1" xmlns="http://www.w3.org/2000/svg" xmlns:xlink="http://www.w3.org/1999/xlink" x="0px" y="0px"
	 viewBox="0 0 600 448.1" style="enable-background:new 0 0 600 448.1;" xml:space="preserve">
<style type="text/css">
	.st0{fill:#FEBA86;}
	.st1{fill:#741E00;}
	.st2{fill:#ED0605;}
	.st3{fill:#CE8B65;}
	.st4{fill:#B5B5B5;}
	.st5{fill:#F1F1F1;}
	.st6{fill:#F3F3F3;}
	.st7{fill:#B2B2B2;}
	.st8{fill:#F9F8F9;}
	.st9{fill:#B7B7B7;}
	.st10{fill:#F3F2F3;}
	.st11{fill:#FCBB89;}
	.st12{fill:#EAEAEA;}
	.st13{fill:#120603;}
	.st14{fill:#AEAEAE;}
	.st15{fill:#BABABA;}
	.st16{fill:#DDDDDD;}
	.st17{fill:#02D4BF;}
	.st18{fill:#BCBCBC;}
	.st19{fill:#EDEDED;}
	.st20{fill:#DEDEDE;}
	.st21{fill:#FCBA87;}
	.st22{fill:#FDBB88;}
	.st23{fill:#561401;}
	.st24{fill:#731D01;}
	.st25{fill:#0D0302;}
	.st26{fill:#029E8D;}
	.st27{fill:#571502;}
	.st28{fill:#ECECEC;}
	.st29{fill:#561502;}
	.st30{fill:#CC8B64;}
	.st31{fill:#571402;}
	.st32{fill:#CB8C64;}
	.st33{fill:#01D2BE;}
	.st34{fill:#C1C2C3;}
	.st35{fill:#C7E26F;}
	.st36{fill:#C7E36F;}
	.st37{fill:#511404;}
	.st38{fill:#690304;}
	.st39{fill:#B5CF68;}
	.st40{fill:#B8D368;}
	.st41{fill:#CD8C63;}
	.st42{fill:#561403;}
	.st43{fill:#95AA51;}
	.st44{fill:#96AD53;}
	.st45{fill:#039C8B;}
	.st46{fill:#C88963;}
	.st47{fill:#FBBB83;}
	.st48{fill:#C58866;}
	.st49{fill:#700204;}
	.st50{fill:#CC8F69;}
	.st51{fill:#660304;}
	.st52{fill:#C88A66;}
	.st53{fill:#8EA454;}
	.st54{fill:#92A74F;}
	.st55{fill:#03D2BC;}
	.st56{fill:#CA8F69;}
	.st57{fill:#DDDDDC;}
	.st58{fill:#521503;}
	.st59{fill:#079380;}
	.st60{fill:#059382;}
	.st61{fill:#001D1E;}
	.st62{fill:#462C1C;}
	.st63{fill:#B7805D;}
	.st64{fill:#B6805F;}
	.st65{fill:#663D25;}
	.st66{fill:#491306;}
	.st67{fill:#B8B8B8;}
	.st68{fill:#401209;}
	.st69{fill:#C0C3C3;}
	.st70{fill:#B48B6B;}
	.st71{fill:#AD7D62;}
	.st72{fill:#E7E7E8;}
	.st73{fill:#A6AAA7;}
	.st74{fill:#653317;}
	.st75{fill:#44200F;}
	.st76{fill:#472C1C;}
	.st77{fill:#F3F4F5;}
	.st78{fill:#E7E7E7;}
	.st79{fill:#BC9A7D;}
	.st80{fill:#E2E2E2;}
	.st81{fill:#535556;}
	.st82{fill:#0A0201;}
	.st83{fill:#070303;}
	.st84{fill:#FEC497;}
	.st85{fill:#0D0301;}
	.st86{fill:#140805;}
	.st87{fill:#140502;}
	.st88{fill:#CC8B68;}
	.st89{fill:#160905;}
	.st90{fill:#230F08;}
	.st91{fill:#C38C69;}
	.st92{fill:#36190D;}
	.st93{fill:#3B1F11;}
	.st94{fill:#C58F6C;}
	.st95{fill:#C28A67;}
	.st96{fill:#B07E5D;}
	.st97{fill:#825E3F;}
	.st98{fill:#090101;}
	.st99{fill:#0A0100;}
	.st100{fill:#0B0100;}
	.st101{fill:#461308;}
	.st102{fill:#180100;}
	.st103{fill:#840406;}
	.st104{fill:#E6E6E6;}
	.st105{fill:#F6F6F6;}
	.st106{fill:#DCDCDC;}
	.st107{fill:#C1C1C1;}
	.st108{fill:#C0C1C1;}
	.st109{fill:#EDEEEE;}
	.st110{fill:#BDBDBD;}
	.st111{fill:#060202;}
	.st112{fill:#C98A63;}
	.st113{fill:#7B4E33;}
	.st114{fill:#5E1F08;}
	.st115{fill:#010D0E;}
	.st116{fill:#FEC295;}
	.st117{fill:#C3916E;}
	.st118{fill:#FEC499;}
	.st119{fill:#BB8B6C;}
	.st120{fill:#D60609;}
	.st121{fill:#731E01;}
	.st122{fill:#FDFCFA;}
	.st123{fill:#B2B3B2;}
	.st124{fill:#4C1405;}
	.st125{fill:#F0F0F1;}
	.st126{fill:#B9BBB8;}
	.st127{fill:#C0C0BF;}
	.st128{fill:#BFC0C1;}
	.st129{fill:#272726;}
	.st130{fill:#88888A;}
	.st131{fill:#C80609;}
	.st132{fill:#1F0101;}
	.st133{fill:#FDFDFD;}
	.st134{fill:#E0E0E1;}
</style>
<g>
	<path d="M170.7,234.8c3.8-0.7,7.6-0.3,11-2.2c4.8-2.6,8.8-6.2,12.5-10.1c1.2-1.2,0.5-2.4-1.3-2.7c-3.7-0.5-7.5,0.1-11.3-1.1
		c5.3-6.1,8.9-13.1,13-20c2.7-4.5,1.4-8.4-0.7-12.4c-0.8-1.7-2.7-1.6-4.1-1.7c-2.7-0.2-3.6-1-4.1-3.9c-1.5-8.9-5.3-16-14.1-20.4
		c-8.2-4.1-14.9-10.4-18.7-19.2c-1.7-4-3.5-7.9-5.6-11.7c-1.3-2.5-2.3-2.5-4.3-0.5c-0.2,0.2-0.4,0.5-0.7,0.8
		c-0.5,0.4-0.8,1.3-1.6,0.9c-0.7-0.3-0.2-1.1-0.3-1.7c-0.6-5.5,1.7-10.5,3.1-15.7c2.1-7.7,5.4-14.8,11.8-19.8c3.4-2.6,3-4.9,1.6-8
		c-0.6-1.3-1-2.6-1.4-3.9c-0.4-1.6-2.2-3.3-1.3-4.8c1.5-2.3,3.6-4.1,6.6-4.7c5.2-1.1,7.6,0.4,9.5,5.5c0.5,1.3,0.3,4,2.9,3.5
		c2.1-0.4,1.4-2.7,1.4-3.9c-0.1-4.9,2.5-8.1,5.8-11.1c2-1.8,2-2.2-0.3-3.7c-4.4-2.8-9.3-4.2-14.6-3.7c-1.3,0.1-2.7,0-4.6,0
		c2.7-3.8,4.8-7.4,7.7-10.3c5.2-5.3,10.7-10.1,17.6-13.2c5.5-2.4,11.2-2.9,17.1-1.9c1.2,0.2,1.9,0.2,2.3-1.2
		c4-13.4,13.2-22.3,25.4-28.4c1.8-0.9,3.6-1.7,5.4-2.6c1.3-0.6,1.8-0.3,1.9,1.2c0.1,6.9,2.6,13.2,5.9,19.2c1.1,2,2,2.1,3.2,0.6
		c7.1-8.6,15.9-14.7,26.5-18.1c5.6-1.8,11.2-3.7,17.2-4.1c-0.9,3.3-3.3,5.4-4.9,8.5c9.9-1.7,19.8-3.7,29.9-3.7
		c10.2,0,20.2,1.4,30.4,3.1c-0.5,1.2-1.7,1.4-2.6,1.8c-3.1,1.7-6.3,3.2-9.5,4.8c-0.8,0.4-1.8,0.6-1.6,1.7c0.2,1.3,1.3,0.8,2.1,0.9
		c8,0.6,15.9,1.8,23.3,5.1c12.2,5.5,19.5,14.7,20.6,28.3c0.3,3.9,0.5,7.7,0.3,12.1c-3.3-2.8-6.7-4.9-10.3-6.4
		c-5.2-2.1-10.6-2.5-15.9-0.4c-1,0.4-2.4,0.9-2.5,2.4c-0.1,1.6,1.4,1.8,2.4,2.4c4.1,2.4,7.1,5.7,8.7,10.3c0.7,1.9,0.2,3.1-1.5,4
		c-2.4,1.3-2.3,2.2,0,3.5c2.8,1.7,6,2.5,7.7,5.8c2.4,4.6,2.4,6.3-1.1,10.1c-1.6,1.8-1.4,4.1-0.2,6c1.6,2.6,1.6,5.3,0.8,8
		c-0.4,1.4-0.1,2.2,0.8,3.2c1.7,1.8,2.9,3.8,2.9,6.5c0,3.1,1,5.6,3.4,7.8c2.7,2.4,4.9,5.2,7.4,7.7c1.3,1.4,1.3,2.6,0.4,4.2
		c-2.2,3.7-4.1,7.4-6.3,11.1c-0.8,1.3-0.7,2.5,0.2,3.6c6.2,7.3,6.2,15.7,2.5,23.7c-2.5,5.5-3.6,10.7-2.8,16.4
		c1,7.2,3.6,13.9,8.3,19.6c2.2,2.7,3.2,2.5,5.1-0.3c4-6.3,6-13.2,6.2-20.7c0-1.1,0.2-2.1,0.8-3.2c7.8,5.8,14.7,12.4,19.1,21.3
		c5.2,10.4,6.6,21.1,2.2,32.1c-0.4,1-0.8,2,0.3,2.8c1,0.8,2.1,0.6,3.1-0.1c2.8-1.9,5.6-3.7,8.6-5.8c0.3,5.2,1,10.1,0.7,15
		c-0.1,2.3,0.8,3.8,2.8,4.7c3.5,1.6,7,3,10.4,4.8c6.7,3.5,12.8,7.7,15.5,15.4c0.6,1.6,1.2,3.3,1.6,4.9c0.3,1.8,1.2,2.3,3,2.3
		c23-0.1,45.9,0,68.9-0.1c2.3,0,2.9,0.6,2.8,2.9c-0.2,5.4,0,5.6,5.3,5.4c6.6-0.3,12.9,0.7,19.2,2.8c4.2,1.4,7.2,4.5,9.7,7.9
		c1,1.4,1.9,1.9,3.5,1.9c7.3-0.1,14.1,1.7,19.7,6.7c7.1,6.5,10.5,20.4,3.2,30.7c-4.8,6.6-10.8,11.7-17.9,15.5
		c-2.3,1.3-1.6,3.2-1,4.7c1.7,4,1.6,8,0.6,11.9c-2.9,11-7.9,20.8-16.2,28.8c-2.1,2.1-2.8,4.5-3.1,7.4c-1.6,13.8-7.2,25.2-20.3,31.8
		c-1.4,0.7-2.8,1.1-2.7,3.2c0.1,1.9-1.6,1-2.5,0.8c-5.3-1.1-10.5-2.4-15.7-3.5c-16.4-3.5-32.7-7.1-49.3-9.3
		c-1.6-0.2-2.2-0.8-2.2-2.6c0.1-4.6-0.2-9.2,0-13.8c0.1-2.4-0.8-3.3-2.9-4c-4-1.4-5.6-0.5-5.5,3.7c0.1,2.2-0.5,3.9-2.3,5.2
		c-2.3,1.8-4.7,3.6-6.9,5.6c-2,1.8-4.2,2.1-6.7,1.8c-13.3-1.7-26.6-3.3-39.8-4.9c-3.7-0.4-7.4-0.8-11.2-1c-2.4-0.1-3.2-0.8-3.1-3.3
		c0.3-4.5,0-9,0.1-13.6c0-1.6-0.5-2.2-2.2-2.3c-6.1-0.1-6.2-0.2-6.5,5.8c-0.2,4.1,0,8.1,0,12.4c-9.9-1.8-19.5-2.8-29.2-2.5
		c-1.5,0-1.9-0.4-1.9-1.9c0.1-4.3-0.1-8.5,0-12.8c0-1.7-0.6-2.3-2.1-2.6c-6.1-1-12.1-0.3-18.2-0.5c-1.5-0.1-1,1.1-1,1.9
		c0,4.3-0.1,8.7,0,13c0,1.4-0.3,1.9-1.8,1.9c-9.1,0.1-18.2-0.9-27.3-0.5c-1.6,0.1-2-0.8-2.1-2c-0.7-4.9-3.6-8.7-5.7-13
		c-0.3-0.6-0.7-1.3-1.6-1.1c-1,0.2-1.2,1.1-1.2,2c0,3.7-0.1,7.5,0,11.2c0.1,1.8-0.5,2.3-2.3,2.4c-19,0.6-38.1,1.3-57.1,1.9
		c-3,0.1-5.9,0.7-8.8,0.6c-1.2,0-1.6-0.4-1.6-1.6c0.1-3.6,0-7.1,0-10.7c0-2-0.7-3.1-2.9-2.9c-0.8,0.1-1.6,0-2.3,0.1
		c-4.1,0.4-4.2,0.5-4.5,4.6c-0.1,1.4-0.6,2.4-1.6,3.3c-3.4,3.1-6.8,6.2-10.2,9.3c-0.8,0.7-1.6,0.5-2.4,0.5
		c-12.4,0.3-24.8,1.6-37,3.8c-3.3,0.6-6.3,0.7-9-1.7c-2.2-2-4.7-3.6-7-5.4c-1.1-0.8-1.9-1.7-1.7-3.2c0.2-1.3-0.5-1.9-1.8-1.8
		c-1,0.1-1.9,0-2.9,0c-4.1,0-4.1,0-4.8,4c-0.1,0.8-0.3,1.5-0.9,2.1c-2.9,3.1-5.8,6.2-8.8,9.3c-2.2,2.2-5.2,2.5-8.1,3.1
		c-16,3.2-32,6.3-48,9.5c-3.5,0.7-3.9,0.5-3.4-2.8c0.7-3.9-2.3-5.3-4.3-7.2c-8.4-7.7-12.5-17.1-12.5-28.4c0-1.9-0.8-3.3-2-4.6
		c-5.4-5.5-9.9-11.7-13.4-18.5c-3-5.9-5.4-12-5.1-18.9c0.1-1.8,0.4-3.4,1.1-5c0.9-1.9,0.7-3.4-1.5-4.6c-7.7-4.2-14.4-9.6-18.8-17.5
		c-4.7-8.5-3.1-20.2,3.8-27.1c5-5,10.7-7.8,17.8-7.7c2.9,0,5.4-0.5,7.4-3.6c2.1-3.5,5.9-5.6,9.9-6.9c2-0.6,3.4-1.6,2.9-4
		c-0.4-1.9,0.5-2.2,2.3-2.2c22.2,0.1,44.3,0,66.5,0c1.3,0,2.5,0.3,3.3-1.4c3.4-7.3,9.8-11.3,16.5-14.8c5.5-2.9,11.4-5.1,17.6-6.4
		c1.4-0.3,2.4-1.2,3.3-2.3c5.7-7.3,13.2-11.9,22.2-14c2.2-0.5,2.6-1.6,1.2-3.3c-1.4-1.7-2.9-3.2-4.4-4.8
		C172,237.3,171.1,236.3,170.7,234.8z"/>
	<path class="st0" d="M235.9,199.1c0.5-1.5,1.1-3,1.6-4.6c0.8-4.4,3.6-7.8,5.8-11.5c0.9-1.5,1.5-3.1,2.6-4.5c1.4-2,2.2-2.1,3.9-0.3
		c1.1,1.2,2.2,2.5,3.2,3.8c0.8,1.2,1.8,1.4,3.1,0.8c5.9-2.6,11.7-5.4,17.6-8c2-0.9,2.6-1.9,1.6-4c-0.9-1.7-1.7-3.4-2.4-5.2
		c-0.5-1.4-1.5-1.8-2.9-1.4c-7.4,2.5-14.8,4.9-22.3,7.4c-1.4,0.5-1.7,1.1-0.9,2.5c1.4,2.5,1,3.3-1.9,3.7c-8,1-15.6,3.4-22.8,7.1
		c-2.4,1.2-3.2,0.7-3.1-2c0.5-9.2,2.7-18,5.7-26.6c1.2-3.5,2.8-6.9,4.2-10.3c0.9-2,0.7-3.4-1.1-4.7c-4.4-3.3-7.6-7.6-10.4-12.2
		c-4.8-7.9-3.3-18.6,1.7-25.8c2.7-3.9,5.3-7.9,8.8-11.2c3.7-4.3,9-4.6,14-5.2c9.1-1.2,18.3-1.3,27.5-0.7c9.5,0.6,19,0.4,28.6-0.2
		c7.5-0.5,15.1-1.8,22.6-1.2c9.1,0.8,18.1,2.2,26.8,5c1.4,0.4,2.8,0.8,4.3,1c1.7,0.2,3.4,0.6,5.1,1.2c2.3,0.8,3.4,1.8,3.7,4.7
		c0.5,4.8-1.5,7.2-5.3,9.3c-4.4,2.5-9,3.8-13.9,4.9c-3.2,0.7-6-0.8-8.9-1c5.2,2,8.6,5.9,10.4,11.2c1.4,4.1,2.3,8.2,2.3,12.5
		c0,2,0.8,3.2,2.7,3.9c4.4,1.7,8.6,3.7,12.3,6.7c0.1,1.5-0.7,0.9-1.4,0.6c0.9,0.4,1.7,1.2,2.7,0.3c1.9,0.1,2.6,1.9,4,2.8
		c4.8,3.7,3.5,10.8,1.4,15.1c-2,4.2-5.5,7.1-9.5,9.3c-6.6,3.6-13.6,5.2-21.1,3.1c-0.8-0.2-1.7-0.1-2.6-0.2
		c-5.4-0.8-10.6-2.4-15.9-3.7c-0.9-0.2-1.8-0.9-2.8-0.4c0.8,0.8,2.6,1,2.2,2.2c-0.4,1.2-2.2,1-3.3,0.7c-5.2-1.1-9.3-4-12.7-7.9
		c-0.5-0.5-0.6-1.2-0.5-2c0.4-2.2,2.1-3.3,3.8-4.4c2.5-1.6,4.7-3.4,6-5.9c-1.7,1.7-3.7,3.2-6.1,4.2c-4.9,2.1-7.9,5.8-9.4,10.8
		c-1.3,4.3-1.6,8.6-0.8,13.1c7-4.6,15-5.5,22.8-7c2.4-0.4,4.8-0.4,7.2,0.5c5.7,2.4,11.7,4.2,17.5,6.5c7.1,2.7,13.3,6.7,18.3,12.5
		c6.8,7.7,5.3,15.3-0.8,22.4c-4.4,5.1-9.9,9-15.6,12.5c-8.7,5.3-18,9.4-27.3,13.5c-6.6,2.9-13.6,3.3-20.6,3.8
		c-0.8,0.1-1.7-0.3-2.7,0.6c1.7,1.7,3.6,3.3,5.5,4.7c0.6,0.5,1.3,0.9,1.9,1.4c0.6,0.6,1.4,1.3,1,2.2c-0.3,0.9-1.2,0.9-2,1
		c-9.2,1.8-18.3,1.4-27.4-0.6c-7.3-1.6-14.4-3.9-21.1-7.4c-1.3-0.7-2.5-1.5-3,0.8c-0.3,1.2-1.3,1-2.1,0.5c-1.1-0.7-1.9-1.8-2.6-2.9
		c-4.8-7.7-7.2-16.1-8.4-25c-0.7-4.9-0.4-9.9-0.9-14.8C233.5,204.6,234.9,201.8,235.9,199.1z"/>
	<path class="st1" d="M270.8,286.3c-5.5-2.2-10.3-5.7-15-9.1c-1-0.8-1.4-1.8-1.1-3c0.4-1.5,0.5-3.1,0.5-4.6c0-2,1.2-2.4,2.8-1.9
		c6.5,2.2,13.2,3.7,19.9,4.6c9,1.2,18.1,1.9,27.2,1.1c6.6-0.6,13.1-1.4,19.5-2.9c11.1-2.7,21.6-7.2,31.7-12.6
		c1.1-0.6,2.8-0.5,3.5-2.3c-5.2-0.2-10.2-0.6-15.2-0.6c-3.8,0-7.4-1.1-11.1-1.2c-0.5,0-1.3-0.2-1.4-0.9c-0.1-0.8,0.7-0.8,1.2-1.1
		c9.7-4.9,18.7-10.8,26.7-18.4c0.6-0.6,1.3-1.5,2.2-0.9c0.9,0.6,0.5,1.6,0.1,2.4c-1.5,3.7-2.9,7.4-4.4,11.1
		c-0.6,1.4-1.2,2.8-1.4,4.6c2-0.3,3.1-1.9,4.2-3c3.2-3,7.6-5.2,9.3-9.3c2.2-5.3,7-7.1,11.2-9.7c7.5-4.7,12.9-11.2,16.8-19.1
		c0.5-1,0.8-2.1,1.2-3.1c0.6-0.4,0.4-1.7,1.5-1.5c1.2,0.2,1.4,1.3,1.5,2.2c0.1,2.7,0.1,5.4-0.1,8.1c-0.8,9.4-3.3,18.5-6.3,27.4
		c-1.6,4.8-2.3,5.2-7.5,5.4c-3.3,0.1-6.6,0.3-9.9,0.5c-0.9,0.1-1.7,0.1-2.8,0.7c2.6,1.5,5.5,1.8,8.1,2.4c5.5,1.1,11,2.3,16.5,3.4
		c2.7,0.5,5.3,0.5,7.9,0.1c1.9-0.3,3.8-0.7,5.7-1c1.8-0.6,3.6-1.2,5.5-1.6c1.6-0.4,2.3,0.3,1.8,1.9c-0.2,0.7-0.6,1.3-1,1.8
		c-7.7,9-16.4,16.6-27.7,20.9c-2.4,0.9-4.1-0.7-6.2-1.2c-0.7-0.2-1.4-0.5-2.1-0.9c-1.8-0.7-3.6-1.3-6-2.2c1.6,2.4,3.6,3.2,5,4.8
		c4.5,3.7,4.5,4.6,0.4,8.8c-3.7,3.7-8.1,6.4-13.1,7.8c-12.9,3.4-25.8,4-38.6-0.6c-0.5-0.2-0.9-0.5-1.4-0.7
		c-6.1-2.8-12.3-5.6-18.4-8.4c-2-0.9-4.1-1.7-6.1-2.6c-0.1,0.2-0.3,0.4-0.4,0.6c2.9,2.4,5.8,4.8,8.8,7.2c0.8,0.8,2.5,1.4,2,2.7
		c-0.6,1.5-2.3,0.8-3.5,0.8c-9.9-0.7-19.7-1.5-29.5-2.8C278.9,289.4,274.7,288.2,270.8,286.3z"/>
	<path class="st1" d="M211.4,43.7c0.6,0.2,1,1.2,1.8,0.8c0.5-0.3,0.2-1-0.1-1.4c-3.4-4.6-1.3-9,0.6-13.2c3.7-8.1,9.9-14,17.7-18.4
		c1.4-0.8,1.8-0.2,2.2,1c1.4,4.4,3,8.6,5.4,12.6c1.9,3.2,4.5,5.7,6.9,8.4c1.1,1.3,2.1,1.1,2.9-0.6c5-10.1,13.4-16.4,23.4-20.8
		c1.2-0.5,2.7-2.2,3.6-1.1c0.9,1.1-0.9,2.3-1.6,3.4c-3.1,4.8-6.1,9.7-9.6,14.2c-0.4,0.5-1.2,1.2-0.4,1.8c0.6,0.4,1.3-0.3,1.8-0.7
		c5.1-3.6,9.9-7.6,15.3-10.8c6.8-4.1,14.6-5.7,22.5-6.9c6.7-1,13.3-0.4,20-0.6c0.8,0,1.8-0.2,2.1,0.7c0.2,0.8-0.7,1.3-1.4,1.7
		c-3.4,2.4-5.9,5.6-8,9.1c-0.3,0.5-0.9,1-0.5,1.6c0.4,0.6,1.1,0.4,1.7,0.4c5.9-0.9,11.8-1.3,17.6-0.9c8.2,0.5,16.2,1.9,23.5,5.9
		c1.4,0.8,2.7,1.9,4,2.9c0.5,0.4,1.1,0.9,1.6,1.4c3.3,3.2,3.7,4.6,2.2,7.6c-1.7,3.4-5.1,5.3-8.7,4.8c-2.6-0.4-5.1-1-7.7-1
		c-0.6,0-1.3-0.1-1.4,0.7c-0.1,0.6,0.5,0.8,1,1.1l0,0c1.7,1.6,1.7,1.6-0.5,3.1c-0.3,0.2-0.7,0.4-1,0.5c-2.8,2.4-6,2.7-9.6,2.6
		c-6.3-0.1-12.6-0.4-18.9-0.9c-5.4-0.4-10.9-0.7-16.2-1.8c-8.2-1.8-16.6-2.8-24.7-4.9c-1.1-0.3-2.3-0.4-3.2-1.1
		c-2.3-1.9-4.9-1.7-7.6-1.3c-5.7,0.9-11.3,2.5-16.7,4.3l0,0c-4.3,1.5-8.5,2.5-13.1,2.9c-6.7,0.6-13.4,1.6-20.2,1.5
		c-8.3-0.1-16.5-0.6-24.5-2.7c-1.5-0.4-3-0.8-4.6-1.1c-1.1-0.2-2.2-0.6-3-1.4c-1.6-1.4-1.4-2.6,0.3-3.7c7.6-4.9,15.4-4.9,23.4-0.8
		C210,43.1,210.7,43.4,211.4,43.7z"/>
	<path class="st2" d="M308.5,60.5c1.9-0.2,3.8-0.4,5.7-0.6c7-1.3,14.1-1.7,21.2-1c6.4,0.6,12.4,2.2,17.7,6.1c1.7,1.3,3,2.9,4.2,4.6
		c1.2,1.8,0.6,3-1.5,2.8c-3.8-0.4-7.6,0.1-11.4,0c-2.1,0-3.9,0.8-5.8,1.3c-0.5,0.1-1.1,0.4-1.1,1c-0.1,0.8,0.7,0.9,1.3,1
		c2,0.4,4.1,0.6,6.2,1c5.7,1.1,11.3,2.6,16.5,5.4c1.9,1,3.6,2.4,4.8,4.3c0.6,0.9,0.8,2,0.2,2.9c-0.7,1-1.8,1.1-2.8,0.8
		c-4.2-1.3-8.4-2.6-12.8-3.4c-12.3-2.5-24.5-5.7-37.2-5.1c-2.6,0.1-5.2,0.5-7.7,0.9c-11.8,1-23.6,0.9-35.4,0.5
		c-4.8-0.2-9.5-0.4-14.3-0.3c-6.6,0.1-13.2,0.6-19.7,1.2c-1.7,0.1-3.5,0.2-5.2-0.1c-3-0.4-3.3-0.8-2.8-3.6c0.1-0.7,0.5-1.4-0.2-1.9
		c-0.7-0.5-1.3,0-1.8,0.5c-3,2.9-6.5,4.5-10.7,5.4c-6.4,1.3-12.7,3.5-19.2,4.7c-4.6,0.8-9.2,1.8-13.8,2.4c-2.6,0.3-6-2.2-6.6-4.8
		c-0.3-1.5,0.4-2.5,1.6-3.3c4.3-2.9,9-4.7,14-6c6.4-1.7,13-2.1,19.6-2.1c0.5,0,1,0,1.7-0.7c-3.1-1.8-6.5-2.4-9.7-3.2
		c-6.4-1.7-12.9-1.4-19.3,0.2c-0.9,0.2-2,0.9-2.5-0.3c-0.5-1.3,0.7-1.8,1.5-2.4c3.4-2.4,7.3-3,11.4-2.8c1.1,0.1,2.3,0,3.4,0
		c2.6,0,5.2,0.7,7.6,1.4c5.2,1.4,10.5,1,15.7,1.9c2,0.3,4.1-0.5,6.3-0.8c-1-1.2-2.3-1.5-3.4-2.1c-1.2-0.8-1.1-1.4,0-2.1
		c1.3-0.8,2.7-1.2,4.1-1.5c6.1-1.5,11.7-4.2,17.7-6.1c5.7-1.8,11.7-2.6,17.7-2.3c4.6,0.2,9.1,1.1,13.4,2.8c3.7,1.5,7.8,1.6,11.7,2.3
		c0.7,0.1,1.6,0,1.8,0.7c0.2,0.9-0.5,1.5-1.2,1.8c-3.4,1.3-6.2,3.6-9.4,5.5C289.3,65.5,298.7,62.3,308.5,60.5z"/>
	<path class="st3" d="M235.9,199.1c0.2,1.7-0.9,3.1-1.1,4.8c-0.5,6.3,0,12.6,0.7,18.9c0.7,6.9,2.5,13.6,5.8,19.8
		c1.2,2.3,2.3,4.9,4.4,6.7c0.4,0.3,0.7,0.9,1.3,0.7c0.6-0.2,0.5-0.9,0.4-1.4c-0.1-2.4,0.8-2,2.4-1.1c9.2,4.6,18.7,7.9,29,9.1
		c6.8,0.7,13.6,1,20.4-0.5c0.6-0.1,1.4,0.3,1.6-0.5c0.2-0.8-0.6-1.3-1.1-1.6c-2.6-1.6-4.7-3.8-7.1-5.7c-0.5-0.4-1.3-0.9-1.1-1.6
		c0.2-0.9,1.2-0.5,1.8-0.5c11.6,0.3,22.3-3,32.6-8.2c7.5-3.8,15.1-7.4,22-12.2c5.9-4.1,11.6-8.6,14.7-15.4c2-4.5,1.3-8.8-1.2-12.8
		c-2.8-4.5-7-7.6-11.4-10.5c-2.7-1.8-5.8-3.1-8.6-4.6c2.3-1,4.4,0.4,6.5,0.8c6.1,1.2,12.3,2.3,18.5,1.6c3-0.3,3.7,0.2,3.6,3.2
		c-0.2,6.7,1.8,12.9,4,19c1.1,2.9,3.2,5.4,5.2,7.8c0.7,0.8,1.3,1.6,2,2.4c1.1,1.2,0.9,2.4-0.2,3.4c-2.5,2.2-5.3,3.9-8.4,5.1
		c-1.9,0.7-3.2,0.3-3.8-1.8c-0.2-0.7-0.5-1.3-0.9-1.9c-2.1-3.2-3.1-3.3-5.6-0.4c-9.8,11.1-21.5,19.6-35,25.7
		c-3.8,1.7-8,2.7-11.7,5.1c3.1,3.8,7.3,5.4,11.7,6.8c1.2,0.4,3.1,0.3,3.1,1.8c-0.1,1.5-2,1.5-3.4,1.9c-11.8,3.5-23.9,4.2-36.1,3.8
		c-8-0.2-16-1.3-23.8-3.4c-2.7-0.7-5.7-0.8-8.1-2.6c-2.5-1.1-5.1-2.1-7.6-3.3c-1.4-0.6-1.9-0.1-2,1.2c-0.2,1.9-0.5,3.8-0.7,5.7
		c-0.1,0.8-0.3,1.3-1.3,1.2c-2.8-0.3-5.4-3.6-4.8-6.3c0.3-1.5-0.1-2.3-1.5-2.4c-6.1-0.6-8.5-4.8-10.3-9.9
		c-3.1-8.7-2.8-17.6-1.3-26.5c1.1-6.8,3.5-13.2,5.7-19.7C235.1,200.1,235.5,199.7,235.9,199.1z"/>
	<path class="st4" d="M139.9,292c-0.8-1.3-0.8-1.3,0.6-1.4c2.1,0,4.2,0,6.3,0c4.4,0,8.9,0.1,13.3-0.1c2.5-0.1,3,0.8,3,3.1
		c-0.3,34.2-0.5,68.5-0.7,102.7c0,3.7,0,3.7,3.6,3.2c1.1-0.1,2.3-0.1,3.4-0.3c4.1-0.8,7.9-0.6,10.9,2.7c0.5,0.5,1.2,1.3,2,0.9
		c0.9-0.5,0.5-1.6,0.5-2.4c0-35.4-0.1-70.8-0.1-106.1c0-3.9,0-3.9,3.8-3.9c4.3,0,8.5,0.1,12.8-0.1c2.3-0.1,3,0.7,2.9,3
		c-0.2,28.6-0.4,57.2-0.6,85.8c0,7.6-0.1,15.1-0.1,22.7c0,1.6-0.4,2.9-1.7,3.8c-0.2,0.2-0.4,0.3-0.6,0.5c-4.6,6.5-11.6,6.6-18.5,7.3
		c-9,0.9-17.9,2-26.9,3.1c-1.8,0.2-3-0.7-4.5-1.5c-4.9-2.7-6.2-6.5-6.1-12.1c0.4-34.5,0.3-69,0.6-103.5c0-3.2-1.2-5.2-3.2-7.1
		c2.6-0.3,3.3,1.6,4.2,3.3c0.3,2.9,0.1,5.9,0.1,8.9c0,18.1,0,36.1,0.1,54.2c0,0.8,0,1.6,0,2.3c0,1.4,0.8,2.1,2.2,1.9
		c4-0.4,8-0.6,12-0.6c1.1,0,1.8-0.6,1.8-1.8c0-0.3,0.1-0.5,0.1-0.8c0-13.8,1.1-27.6,0.6-41.4c-0.1-7.6,0-15.3,0-22.9
		c0-3.2-0.2-3.4-3.4-3.4C152,292.2,145.9,292.5,139.9,292z"/>
	<path class="st5" d="M523.3,336.9c-4.4-3.9-8.2-8.5-12.3-12.7c-1.4-1.4-0.9-3.3-0.6-5c1-5.3,2.2-10.5,3.3-15.7
		c0.2-0.8,0.9-1.8,0.2-2.4c-0.9-0.7-1.8,0.3-2.5,0.8c-1.3,1-2.5,2.1-3.7,3.2c-0.5,0.6-1.1,1.1-1.4,1.8c-0.8,1.6-2.1,2-3.7,1.7
		c-3.5-0.6-7.1,0-10.7-0.4c-2.1-0.2-2,1.4-2,2.8c0,9.3,0,18.6,0,27.9c0,0.4,0.1,0.9,0,1.3c-0.2,1.1,0.6,2.8-0.8,3.2
		c-1.2,0.4-1.7-1.2-2.4-2.1c-1.4-1.8-3.2-2.4-5.5-1.5c-1.1,0.4-2,0.1-3.1,0c-2.5-0.3-3.3,0.2-3.5,2.9c-0.2,2.4-0.2,4.9-0.7,7.3
		c-0.2,1-0.3,2.4-2,1.7c-0.5-4.9-0.1-9.9-0.2-14.8c0-13.2,0-26.3,0-39.5c0-0.3,0-0.6-0.1-0.9c-1-1.9-3.3-2.8-4.1-4.9
		c0.7-0.8,1.6-0.4,2.5-0.4c15.6,0,31.3-0.1,46.9,0c3.3,0,6.6,0.2,9.9,0.2c1.4,0,2.3,0.3,2.2,2.1c-0.3,13.9,0,27.8-0.2,41.6
		c0,1.2,0.8,2.7-0.8,3.5c-1.8,0.9-2.9-0.3-4-1.4C523.8,337.1,523.6,337,523.3,336.9z"/>
	<path class="st1" d="M204,218.4c1.4-4.7,2.8-9.4,4.1-14.1c0.7-2.7,1.5-5.4,1.8-8.8c-2.7,2.5-4.3,5.4-6.4,7.8
		c-0.6,0.9-1.3,1.6-2.1,2.3c-0.7,0.7-1.5,0.8-2.3,0.2c-0.9-0.6-0.6-1.3-0.2-2c1.3-2.4,2.1-5.1,3.4-7.5c3-7.3,4.7-14.9,5.3-22.8
		c0.1-1.8,0.3-3.6,0.3-5.4c-0.1-3,1.6-5.6,2.2-8.5c0.6-2.5,0.8-5.1,1.6-7.6c1.1-3.4,2-6.4,0.1-10c-1.2-2.3-0.8-5.3-1.5-7.8
		c-0.1-0.5-0.5-1,0.2-1.3c0.6-0.3,1,0.2,1.3,0.6c1.3,1.7,2.3,3.5,3.6,5.1c1.4,1.9,3,3.6,4.7,5.2c1.1,1.1,1.5,2,0.8,3.6
		c-1,2.1-1.9,4.2-2.4,6.5c-3,8.4-5.3,17-6.1,25.9c-0.7,8.7-0.5,17.5,1.6,26.1c0.8,3.4,1.3,7,1.9,10.5c0.1,0.7,0.1,1.6,1.2,2
		c1.2-5,1.6-10,2.4-15c0.5-2.9,0.7-5.8,1.2-8.7c0.1-0.8,0.5-1.5,1.2-2c2.5-1.6,5.2-2.7,7.9-3.9c0.6-0.3,1.5-0.9,2.1,0
		c0.5,0.7-0.1,1.5-0.4,2.2c-1.5,3.5-3.1,7-4.5,10.5c-3.3,8.9-5.4,18-6,27.5c-0.5,7.4,0.3,14.6,3,21.4c3,7.5,7.9,13.7,14.7,18.5
		c4,2.8,8.5,4.6,12.7,7c1.1,0.9,0.5,1.4-0.4,1.9c-3.4,1.9-6.9,3.1-10.9,1.8c-6.8-2.1-11.9-5.9-13.4-13.4c-0.1-0.3-0.3-0.7-0.2-1
		c0.9-3.1-1.1-4-3.5-4.8c-6.1-2.2-11.3-6-16.6-9.6c-2.1-1.4-4.3-2.8-6.4-4.5c-3-2.5-5.3-5.5-7.5-8.6c-1.3-1.8-1.1-3.4,0.6-4.8
		C198,228.9,201.5,224,204,218.4z"/>
	<path class="st6" d="M222.2,294.6c-1.2-1.2-2.8-2-3.9-3.5c0.3-0.2,0.5-0.4,0.7-0.4c13.9-0.1,27.8-0.1,41.7-0.2
		c1.3,0,2.6,0.2,3.8,0.9c4.4,2.3,8.9,4.3,13.6,5.9c1.6,0.6,2.3,1.3,2.3,3.2c-0.1,9.8-0.1,19.6-0.1,29.5c0,0.7,0.3,1.6-0.3,2
		c-0.9,0.6-1.3-0.5-1.9-1c-4.7-3.7-9.3-7.6-14-11.3c-1.3-1-1.7-2.1-1.3-3.8c1.3-5.1,2.3-10.2,3.5-15.2c0.5-2-0.3-1.8-1.6-1.3
		c-2.1,0.7-3.6,2.2-4.8,3.9c-0.9,1.3-1.9,1.5-3.3,1.5c-4.3,0-8.5,0-12.8,0c-2.8,0-2.8,0-2.8,2.9c0,8,0,16,0,23.9
		c0,3.4-0.4,6.8-0.3,10.2c-1,0.2-1.3-0.2-1.4-0.7c-0.6-3-1.6-6-0.6-9.2c0.7-2.3,0.3-2.5-2.1-2c-2.4,0.5-4.8,0.5-7.2-0.4
		c-2.4-0.9-3-0.6-3.9,1.8c-0.7,1.8-1,3.7-1,5.6c0,1.1,0,2.3-0.9,3.2c-0.3,0.4-0.8,0.8-1.2,0c0-14.2,0-28.5,0-42.7
		C222.6,296.5,222.9,295.5,222.2,294.6z"/>
	<path class="st7" d="M119,295.1c2.9,1.6,4.5,3.6,4.4,7.3c-0.4,36.1-0.5,72.1-0.7,108.2c0,1.6-0.4,2.8-1.5,3.9
		c-7.5,8-7.5,8-18.5,9.8c-11.6,1.9-23.1,4.2-34.5,6.7c-3.1,0.7-3.1,0.7-3.1-2.6c0-6.2,0-12.3,0-18.5c0-3.1,0-3.1,2.9-2.5
		c0.7,0.1,1.4,0.3,2,0.4c5.2,0.7,7.9-1,9.5-6.2c0.5-1.5,3.4-6.3,4.4-7.1c0,4.4,0.1,8.7-0.1,12.9c-0.1,2.6,0.9,2.9,3.1,2.5
		c3.1-0.6,6.2-1,9.3-1.5c1.6-0.3,2.8-0.1,3.6,1.6c0.8,1.6,2,4.2,3.4,3.8c1.6-0.5,0.6-3.2,0.6-4.9c0.1-31,0.2-62.1,0.2-93.1
		c0-2.4,1-5.5-0.6-7c-1.6-1.6-4.6-0.2-7-0.3c-0.7,0-1.4-0.1-2-0.1c-0.1-0.4,0-0.7,0.3-0.9c2.8-0.9,5.7-0.6,8.5-0.3
		c2.2,0.2,2.5,2,2.5,3.9c-0.1,16.5,0.2,32.9,0.1,49.4c0,1.1,0.1,2.3-0.1,3.4c0.1,12.6,0,25.3,0,38.6c2-3,4.6-3.2,7.2-3
		c2.6,0.2,4.7-1.6,7.4-1.2c1.2,0.2,0.9-1.2,1-2c0.1-3.5,0-6.9,0-10.4c0-7.3,0-14.6,0-21.8c-0.2-11.3,0.7-22.5,0.5-33.8
		c-0.1-10,0.2-20.1-0.1-30.1c-0.3-1.1-1.1-1.9-1.8-2.7C119.4,296.6,118.6,296.1,119,295.1z"/>
	<path class="st8" d="M119,295.1c0.6,1.6,2.3,2.2,3.2,3.6c0.4,6.9,0.1,13.9,0.2,20.8c0,3.3,0.1,6.5-0.1,10.1
		c-1.6-0.6-1.7-1.8-1.9-2.8c-0.1-0.8-0.3-1.5-0.3-2.3c-0.2-2-1-3-3.2-2.6c-1.8,0.3-3.6,0.3-5.4,0c-1.9-0.3-2.7,0.6-3,2.3
		c-0.1,1.1-0.2,2.3-0.8,3.3c-0.4,0.7-0.9,1.4-1.8,1.2c-0.9-0.2-0.6-1.1-0.6-1.8c0-4.9,0-9.9,0-14.8c0-0.4,0-0.9-0.2-1.3
		c0.3-2.6-0.9-3.5-3.5-3.3c-2.3,0.2-4.6,0.1-7,0.2c-2.7,0.4-5.3,0.6-8,0.5c-2-0.1-2.9,0.7-2.8,2.7c0.1,1.3-0.2,2.6-0.3,3.9
		c-0.1,1.9-1.3,2.5-2.7,1.3c-1.2-1-2.3-1.1-3.6-0.7c-1.2,0.3-2.4,0.4-3.6,0.4c-3,0.1-3.7,0.6-4.7,3.5c-0.4,1.1-0.5,2.2-0.9,3.3
		c-0.3,0.6-0.6,1.4-1.5,1.2c-0.7-0.2-0.7-0.9-0.7-1.5c-0.1-3.6,0-7.3,0-10.9c0-3.7-0.2-7.5,0.1-11.2c0.2-2.6-1-4.2-2.8-5.8
		c-0.6-0.5-1.6-1.1-1.3-2c0.3-1,1.5-0.7,2.3-0.7c16.2,0.1,32.3-0.5,48.4-0.3c1.1,0,2,0.2,3,0.7C116.9,292.7,118,293.9,119,295.1z"/>
	<path class="st7" d="M241.2,357.7c0,11,0,22.1,0,33.1c0,3.7,0,3.7,3.6,3.6c3.6-0.1,7.3-0.1,10.9-0.3c1.6-0.1,2.5,0.4,3.3,1.9
		c1.3,2.6,3.2,4.8,5.7,6.3c0.5,0.3,1.1,0.9,1.6,0.5c0.6-0.4,0.2-1.1,0.1-1.7c-1.2-5.7-2.4-11.4-3.7-17c-0.5-2.2-0.2-3.7,1.7-5.2
		c4.7-3.7,9.3-7.6,13.9-11.4c0.5-0.4,0.9-1.3,1.7-0.8c0.7,0.4,0.4,1.3,0.4,1.9c0,12.2-0.1,24.5,0,36.7c0,2.3-0.8,2.8-2.8,2.8
		c-11.7,0.2-23.5,0.5-35.2,0.9c-6.1,0.2-12.1,0.6-18.2,1c-1.4,0.1-2.3-0.1-2.2-1.9c0.1-18.2,0.1-36.5,0.2-54.7c0-0.3,0.1-0.7,0.2-1
		c1.1,1,0.7,2.4,0.8,3.6c0.1,1.1,0,2.2,0.4,3.3c0.3,1.4,0.2,2.8,0.2,4.3c0.1,10.7,0.1,21.4,0,30.8c0.4-2,1.3-2.9,4.2-3
		c2.4-0.1,4.9,0,7.3,0c1.6,0,2.8,0.7,4.6,1.8c0.3-10.3,0-20.2,0.2-30.1c0.1-1.7-0.4-3.5,0.5-5.2
		C240.6,357.6,240.9,357.5,241.2,357.7z"/>
	<path class="st7" d="M492.6,367.6c-1.3-0.1-2,0.3-2,1.9c0.1,12.7,0.1,25.4,0.1,38.1c0,1.4,0.6,2,1.9,2.2c3.1,0.4,6.2,1.1,9.3,1.5
		c1.7,0.2,2.7,0.9,3.4,2.7c1.2,3.3,3.1,6.3,6,8.3c0.7,0.5,1.6,1.5,2.5,0.9c0.8-0.5,0.1-1.6,0-2.5c-1.1-5.5-2.5-11-3.3-16.6
		c-0.6-4.3,0.6-7.5,4.3-9.9c2.1-1.4,3.9-3.2,5.8-4.8c0.4-0.3,0.8-0.8,1.3-0.6c0.7,0.3,0.4,1.1,0.4,1.6c0,1-0.8,1.4-1.5,2
		c-2.1,1.6-4,3.3-5.7,5.4c-0.5,0.6-1,1.3-0.5,2.1c2.4,3.9,3.6,8.4,6.4,12.1c1.6,2.1,3.4,3.1,6,2.5c1.9-0.4,2.4,0.3,2.3,2.2
		c-0.2,5.1-0.3,10.3-0.1,15.4c0.1,2.6-0.7,2.8-2.9,2.3c-17.4-3.9-34.8-7.6-52.4-10.4c-2-0.3-2.2-1.4-2.2-3.1c-0.1-14-0.2-28-0.2-42
		c-0.1-27.6-0.3-55.1-0.4-82.7c0.2-0.2,0.4-0.2,0.6,0l0.1,0c0.4,1.2,0.2,2.4,0.2,3.6c0,12.3,0,24.6,0,36.9c0,4.3-0.3,8.7,0.1,13
		c0.4,4.3,0,8.6,0.7,12.9c0.2,0.6,0.2,1.3,0.2,1.9c0.1,11.6,0,23.3,0.1,34.9c0,1.2,0,2.4,0,3.6c0.2,4,1.9,5.1,5.3,3
		c3.2-2,6.3-2.2,9.7-1c0.8,0.3,1.1,0.2,1.2-0.7c0-0.6,0-1.2,0-1.8c0-10.3,0-20.7,0-31c0-1.1-0.1-2.3,0.3-3.4
		C490.2,366.5,491.3,366.3,492.6,367.6z"/>
	<path class="st9" d="M352.3,349.8c0.4,0.1,0.9,0.9,1.2,0c0.2-0.7,0.1-1.6,0.1-2.3c0-12.3,0-24.7-0.1-37c0-2.2,0.4-2.8,2.8-2.4
		c4.5,0.8,9.1,1.5,13.7,1.4c1.9,0,2.5,0.8,2.5,2.7c0,32.2,0,64.5,0.1,96.7c0,1.9-0.6,2.4-2.4,2.2c-4.9-0.4-9.9-0.8-14.8-1
		c-1.3-0.1-1.9-0.6-1.9-1.9c0-4.8,0-9.6-0.1-14.3c0-1.2,0.4-1.6,1.7-1.6c2.8,0.1,2.9-0.1,1.5-2.6c-5.2-9.8-10.5-19.6-15.7-29.4
		c-0.7-1.3-1.7-2.4-1.8-4c1.5-0.2,1.9,1,2.4,1.9c1.1,2.4,2.9,3.1,5.5,3c7-0.1,14-0.1,21,0c2.3,0.1,2.8-0.8,2.8-2.9
		c-0.1-3.7-0.1-7.4,0-11.2c0-10.9-0.1-21.9-0.1-32.8c0-2.9-0.3-3.2-3.1-3.2c-3.2,0-6.4-0.5-9.6-0.9c-2.6-0.3-2.9-0.2-2.9,2.5
		c-0.1,8.6,0.1,17.2-0.1,25.8c0.1,3.4,0,6.7,0.1,10.1c0,0.7,0,1.4-0.2,2.1c-0.3,0.9-0.8,1.9-2,1.4
		C351.8,351.6,351.5,350.8,352.3,349.8z"/>
	<path class="st10" d="M410.1,304.5c7.4-2.7,14.6-5.7,22-10.2c-5.1-0.9-9.5-1.8-14.6-2.7c1.5-1,2.5-0.8,3.3-0.8
		c5.8,0,11.6,0.2,17.5,0c2.8-0.1,5.1,0.6,6.9,2.7c0.8,0.9,1.7,1.7,2.6,2.5c0.9,1.1,2.4,1.7,2.5,3.3c0,9.5,0,19.1,0,28.6
		c0,3.1-0.4,3.3-3,2.1c-3.9-1.9-9.9-0.3-12.5,3.2c-0.6,0.8-1.2,1.6-2.3,1c-1-1.8-0.4-3.8-0.6-5.7c0-5.1,0-10.2,0-15.4
		c0-0.6,0-1.2,0-1.8c-0.3-4.2-0.6-4.5-4.8-4.6c-2.1,0-4.2,0.1-6.2-0.1c-2.4-0.7-4.8-0.3-7.2-0.4c-1.4,0-1.6,0.9-1.6,2.1
		c0,2,0,3.9,0,5.9c-0.1,6.8,0.3,13.6-0.2,20.4c-1,1.4-1.4,0.3-1.6-0.5c-0.4-1.9-1.1-3.7-1.2-5.6c-0.1-1.2-0.4-2.4-0.6-3.6
		c-0.4-1.6-1.3-2.3-2.9-1.9c-2.2,0.6-4.4,0.9-6.7,0.6c-1.8-0.2-2.8,1-3.4,2.6c-0.3,0.9-0.6,2.4-2.2,1.3c-0.3-4.4-0.1-8.9-0.1-13.3
		c0-1.2,0-2.4-0.2-3.6c-0.2-1.3,0.2-2.2,1.8-2.3C399.7,307.3,405.1,306.6,410.1,304.5z"/>
	<path class="st11" d="M173.8,137.1c-0.2-4.8,1.3-9.2,3.8-13.8c-2.8,0.9-4.6,2.6-6.7,3.9c-1.5,0.9-2.1,0.8-2.2-1.1
		c-0.9-14.5-4.4-28.4-8.8-42.2c-0.2-0.6-0.9-1.3-0.3-1.9c0.6-0.6,1.3,0,1.9,0.2c1.1,0.3,2.1,0.7,3.2,1.1c0.1,0,0.3-0.1,0.7-0.2
		c-1.3-1.8-2.4-3.7-3.7-5.4c-1.4-1.8-0.5-2.3,1.2-2.4c2.2-0.1,4,0.4,4.7,3c1.1,4.3,2.9,8.4,5.6,12c0.9,1.3,0.9,2-0.9,2.1
		c-0.6,0.1-1.2,0.1-1.8,0.4c-1.1,0.4-2.9-0.3-3.1,1c-0.1,1,1.7,1.6,2.6,2.2c9.8,6.7,19.1,13.9,25.9,23.9c1.9,2.7,3.6,5.5,4.7,8.7
		c2.3,6.2,3.8,12.5,3.6,19.2c-0.2,7.3-6,11.5-13,9.3c-6.7-2.1-12-6.2-16.2-11.6C172.8,143,173.5,140,173.8,137.1z"/>
	<path class="st12" d="M304.2,304c5.2,0.4,10.3,0.8,15.5,1.1c1,0.1,1.9,0.2,2.9,0c5.1-1,7.7,1.4,9.7,5.9c3.3,7.5,7.7,14.5,11.1,22
		c1.4,3.2,3.1,6.1,4.8,9.2c0.3,0.6,1.1,1.2,0.4,1.8c-0.7,0.7-1.4,0-2.1-0.4c-0.2-0.2-0.5-0.3-0.6-0.5c-1.6-3.2-5.1-3.6-7.7-5.4
		c-1.8-1.2-4.1-0.5-5.1,1.2c-1.2,2.1-1.5,2.1-2.8,0c-0.1-0.2-0.3-0.4-0.5-0.6l0,0c-0.7-2.3-2.2-4.3-3.4-6.3c-1.7-1-3.6-0.5-5.4-0.5
		c-1.8,0-0.6,2.2-1.9,2.7c-3.8-1.6-8-0.5-12-1.8c-1.9-0.6-3,1-3.4,2.7c-0.7,2.5-0.3,5.2-0.4,7.7c0,1.2,0.1,2.5-0.6,3.5
		c-0.3,0.5-0.8,1.3-1.4,0.2c0-13.5,0-27,0-40.6C301.4,303.5,301.4,303.5,304.2,304z"/>
	<path class="st13" d="M258.9,260.6c6.8,1.7,13.6,3.6,20.5,4.6c16.4,2.3,32.5,1.3,48.5-3.3c0.7-0.2,1.5-0.3,2.2-1.2
		c-2.2-0.7-4.3-1.4-6.4-2c-3.6-1-6.2-3.4-9-5.6c-1.6-1.2-0.4-1.6,0.7-1.9c4.7-1.6,9.3-3.4,13.7-5.6c12.8-6.4,24.2-14.6,33.4-25.7
		c2-2.5,2.1-2.4,4.3,0c1.2,1.3,2.1,2.8,2.6,4.4c0.4,1.3,1.1,1.6,2.3,1c3.2-1.5,6.1-3.3,8.9-5.4c1-0.8,1-1.4,0.1-2.3
		c-8.1-8.4-11.2-18.7-11.3-30.1c0-1.4,0-2.6-2-2.4c-8.4,1-16.6-0.6-24.7-2.6c-0.4-0.1-0.9-0.1-1.3-0.1c-5.8-1.9-11.6-3.8-17.2-6.3
		c-3.7-1.3-7.1-3.1-10.5-5.2c-0.7-2.2,1.1-0.8,1.3-0.8c3.4,0.8,6.7,1.8,10.1,2.7c2.8,0.7,5.6,1.2,8.4,1.9c9.6,1.8,19.3,2.9,29.1,2.9
		c1.4,0,2.8-0.3,4.1-0.3c3.2-0.1,4.7-1.8,5.8-4.6c2.6-7,2.1-13.4-2.8-19.2c-1.6-1.8-2.7-4.1-4.8-5.4c-1.3-0.7-2.1-2.2-3.6-2.6
		c-0.4,0-0.8-0.2-1-0.5c-4.1-3.2-9-5.1-13.8-7.2c-1.5-0.6-1.8-1.3-1.9-2.9c-0.1-5.2-1.1-10.3-3.1-15.2c-1.8-4.4-5-7.2-9.2-9.1
		c-0.8-0.3-1.7-0.4-2.3-1.5c1.8-0.3,3.4,0.1,4.8,0.5c5.6,1.8,10.6-0.1,15.7-2c1.1-0.4,2.2-1,3.3-1.6c5.9-3.3,6.6-4.7,6.2-11.2
		c-0.1-1.2-0.9-1.3-1.7-1.6c-10.6-3-21.3-5.5-32.2-7.1c-8.2-1.2-16.3-0.1-24.4,0.5c-12.4,0.9-24.8,0.9-37.2,0.1
		c-9.6-0.6-19.1,0.4-28.6,1.7c-3.3,0.4-5.1,3.1-7.6,4.7c-1-1.6,0.6-2.1,1.3-2.9c0.9-1,2.1-1.4,3.4-1.9c2.4-0.4,4.9-0.7,7.3-1.1
		c3.4-0.7,6.8-1.9,10.4-1.5c1,0,2.1,0,3.1,0c3-1.3,6.3-1.3,9.4-0.9c4.3,0.6,8.5,1.2,12.8,1.2c5.8-0.2,11.6,0.7,17.3-0.9
		c-1.8-0.3-3.7-0.2-5.5-0.2c-5.4,0-10.7,0.1-16,0c-1.4,0-3.1,0.2-3.5-1.8c0.7-0.5,1.5-0.3,2.3-0.3c7.5,0.4,14.9,0.3,22.4,0
		c5.5-0.2,11.1-0.6,16.6-1c5.4-1,10.7-0.7,16.1,0c0.6,1.6-1.5,0.9-1.7,2.1c1.5,0.8,3.1,0.4,4.6,0.3c-0.2-1.2-2.9,0.1-2-2.1
		c3.1,0,6.1,0.5,9.1,1.4c-0.1,1.5-1.6,0.8-2.7,1.7c2.7,1.5,5.5,1.7,8.9,1.9c-1.3-1.2-2.5-1.2-3.6-1.6c-1.2-0.5-1.2-0.5-1.2-1.8
		c3.6,0,6.8,1.3,10.2,2.1c0.4,0.1,0.5,0.4,0.5,0.8c-0.8,0.2-2-0.5-2.3,0.5c-0.3,0.9,0.9,1,1.5,1.5c1.6,1.5,3.7,1.8,5.5,1.5
		c2.2-0.4,3.5,0.7,5.3,1.3c2.7,1,3.8,2.7,3.6,5.5c-0.1,2,1.1,4.1-0.1,6.1c-0.2,0.4-0.4,0.9,0.1,1.1c0.5,0.3,1,0.1,1.5-0.1
		c2.7-1,3.7-0.3,3.2,2.6c-0.3,1.8-0.7,3.6-2.6,4.5c-0.6,0.3-1.1,0.7-0.9,1.4c0.3,0.9,0.9,0.4,1.5,0.4c2.4-0.2,3.3,1.3,3.6,3.4
		c-0.2,0.2-0.4,0.2-0.7,0.1c-0.6-0.4-0.9-1.1-1.5-1.4c-0.8-0.4-1.5-0.1-2.2,0.4c-0.8,0.5-0.6,1.1-0.1,1.8c0.4,0.5,0.9,1.1,0.2,1.8
		c-1.5-0.9-3.7-1.4-2.3-4c0.3-0.6-0.2-0.9-0.7-1.2c-0.7-0.4-1.5-0.9-2.2-0.2c-2.2,2.4-5.6,1.3-8.1,3c-1.4,1-2.6-0.5-3.2-1.7
		c-0.6-1.4,0.2-2.2,1.6-2.7c1.3-0.5,2.5-1.3,3.7-2.4c-2.7,1.3-5.7,0.5-8.6,1.3c-4,1.1-3.3,2.3-1.8,4.8c1,1.6,1.5,3.5,2.5,5.1
		c2.4,3.9,1.7,8.4,2.5,12.6c0.6,3,1.7,3.5,4.2,2.1c0.3-0.2,0.6-0.3,0.8-0.6c3.1-3.9,8-4.6,12.1-6.6c3.7-1.9,9.1,0.2,10.8,4
		c0.2,0.6,0.3,1.4,0.7,1.6c3.3,2,2,4.1,0.3,6.2c-1.4,1.7-1.4,4.1-3.3,5.5c-1.1,0.8-1.9,1.2-2.6-0.4c2.3-2.2,3.1-5.3,4.7-8
		c0.5-0.9-0.1-1.6-0.6-2.4c-0.7-1.1-1.6-2-2.5-3c-0.2-0.2-0.3-0.4-0.4-0.6c-0.7-1-1.3-2.3-3-1.6c-5.3,1.7-10.7,3.3-15.7,6.9
		c2.9,1.6,6,1.7,8.6,3.1c0.5,0.3,1.1,0.6,1.1,1.4c-0.3,0-0.7,0.1-1,0c-0.8-0.2-1.8-0.7-2.1,0.6c-0.2,1.2,0.7,1.4,1.6,1.6
		c2.6,0.4,4.5,2.2,6.4,3.8c3.9,3.2,7.3,6.9,8.7,12c0.2,0.8,0.4,1.5,0.4,2.3c0.1,2.7-0.2,5.3,0.4,8c0.5,2.3-1.4,4.2-1.8,6.4
		c-0.5,2.8-3.2,2.2-5.4,2.5c-5.7,0.7-11.4,0.4-17.1,0.1c-3.7-0.2-7.5-0.5-11.2-0.7c-2.9-0.1-5.7-0.9-8.6-1.3
		c-0.6-0.1-1.3-0.4-1.5,0.4c-0.1,0.7,0.5,1.1,1.1,1.3c0.6,0.2,1.4,0.2,2,0.2c1.5-0.1,3,0.2,4.2,1c5.2,3.3,11.2,3.5,16.9,4.7
		c4,0.8,8.1,0.7,12.2,0.5c2.3-0.1,3.6,1.1,3.3,2.9c-0.6,4.3,1.3,8.1,1.9,12.2c0.4,2.6,2.1,5,2.2,7.9c0,0.2,0.2,0.6,0.4,0.7
		c4.1,1.7,4.1,6.5,7.1,9.1c1,0.9,1,2.6,0,3.5c-3,2.7-5.9,5.7-10.4,5.7c-1.8,0-3.3-0.3-3.7-2.7c-0.5-2.7-2.3-3.4-4.6-2.1
		c-1.1,0.6-2.4,1.4-2.9,2.4c-2.7,5.3-8.2,7.9-11.8,12.3c-0.9,1.1-2.5,2-4,2.3c-1.3,0.2-2.3,0.8-3.2,1.6c-3.6,3.4-8.4,4.6-12.6,7
		c-2.5,1.4-5.1,2.4-7.9,3.1c-1.5,0.3-2.4,1.5-2.6,2.9c-0.2,1.3,1.4,1.3,2.2,1.9c2.8,2.2,6.5,2.8,9.6,4.4c0.7,0.4,1.6,0.5,1.4,1.5
		c-0.1,0.9-0.6,1.6-1.6,1.8c-0.8,0.1-1.5,0.3-2.3,0.4c-2.1,0.3-4.3,0.7-6.2,1.6c-2.3,1.1-4.5,1.9-7.2,1.2c-1.7-0.4-3.7,0.2-5.6,0.4
		c-9.6,0.7-19.2,1-28.8-0.4c-2.9-0.4-5.9-0.5-8.7-1c-3.5-0.7-7-1.7-10.4-2.8C259.7,262,259.1,261.4,258.9,260.6z"/>
	<path class="st14" d="M449.8,298.7c-0.5-1-1.8-1.4-2.1-2.7c2.3,1,3.2,2.7,3.2,5.3c0,36.4,0.2,72.8,0.3,109.2c0,1.6-0.4,2.7-1.7,3.5
		c-0.1,0-0.1,0.1-0.2,0.2c-4,4-8.5,4.6-14.2,3.8c-13.2-2-26.5-3.3-39.8-4.8c-1.5-0.2-2.2-0.4-2.2-2.1c-0.1-24.4-0.3-48.8-0.5-73.3
		c0-0.2,0.1-0.3,0.1-0.5c0.3-0.2,0.6-0.1,0.8,0.1c0.5,0.7,0.5,1.5,0.5,2.3c0.1,6.9,0.1,13.8,0.1,20.7c0,4.9,0,9.9,0.2,14.8
		c0.5,10.4,0.5,20.8-0.1,31.2c0,0.2-0.2,0.2-0.2,0.2c0.8-4.1,1.4-4.3,5.7-4.5c5.3-0.3,10.5,0.9,15.8,1.2c1.8,0.1,3.5,0,5.1-0.7
		c2.3-0.9,4.4-1,6.1,1.2c0.3-0.5,0.1-1.2,0.6-1.5c1.8,0,2.4,1.9,3.7,2.7c0.8-0.7,0.6-1.5,0.6-2.2c0-11.3,0.4-22.6-0.1-33.8
		c-0.6-12.2-0.2-24.3-0.4-36.4c0-1.3-0.2-2.6,0.5-3.8c0.2-0.3,0.5-0.4,0.8-0.3c0,1.9,0.1,3.8,0.1,5.7c0.8,1,0.7,2.3,0.7,3.5
		c0,3.8,0,7.6,0,11.5c-0.1,4.3-0.4,8.6,0.2,12.9c0.1,0.3,0.1,0.6,0.2,0.9c0.2,7.7,0.2,15.5,0.1,23.2c0,4.1,0.7,8.1,0.6,12.1
		c3.1-0.2,5.2-1.9,7.2-4.1c2.3-2.6,6.1-1.3,7,2c0.4,1.3,0.8,2.6,0.9,3.4c0-11.9,0-24.4,0-36.9c-0.2-9.9-0.6-19.8,0.1-29.6
		c0.7-10.9,0.1-21.8,0.4-32.7C450.1,299.7,450.1,299.2,449.8,298.7z"/>
	<path class="st15" d="M319.3,334.2c0.2-3.2,0.4-3.4,4.9-3.1c1,0.1,1.9,0.3,2.6,1c0.1,0.2,0.1,0.4-0.2,0.6c-1.6-1.1-3.5-0.7-5.3-0.7
		c-1.7,0.1-1.1,1.5-1.1,2.4c-0.1,10.5-0.1,21-0.1,31.5c0,13.2,0,26.4,0.1,39.6c0,2.3-0.7,2.8-2.8,2.7c-4.6-0.2-9.2-0.2-13.8-0.2
		c-1.8,0-2.6-0.5-2.6-2.5c0-33.3-0.1-66.7-0.1-100c0-2.5,0.5-2.7,3.2-1.5c-1.9-0.3-2.6,0.4-2.6,2.5c0.1,13.6,0.1,27.1,0.1,40.7
		c0.9,0.9,0.7,2.1,0.8,3.2c0,2.6,0.1,5.2,0,7.8c-0.1,1.9,0.6,2.9,2.7,2.8c3.5-0.1,6.9,0,10.4,0c2.6,0,3-0.4,3-3.1
		c0.1-6.7,0-13.4,0-20C318.6,336.6,318.3,335.3,319.3,334.2z"/>
	<path class="st16" d="M222.9,363.3c0-1.4-0.1-2.7-0.1-4.1c-0.3-6.3-0.5-12.5,0.1-18.8c1.1-1,1.1-2.3,1-3.6c-0.2-2.5,0.6-4.8,1.5-7
		c0.7-1.7,1.7-2.3,3.4-1.5c3.1,1.5,6.1,2,9.3,0.1c1.4-0.8,2.4,1,1.9,2.1c-1.8,3.8-0.2,7.4,0.1,11.1c0.8,0.1,0.5-0.5,0.5-0.8
		c0.1-0.3,0-0.7,0-1c0-10.5,0-21,0-31.5c0-3.7,0-3.7,3.8-3.7c4,0,8-0.1,12,0c1.5,0,2.5-0.3,3.5-1.6c1.2-1.6,2.5-3.5,4.9-3.5
		c-1.7,1.5-3.6,2.8-4.9,4.6c-0.8,1.1-1.9,1-3,1.1c-4.4,0-8.9,0.1-13.3,0.1c-1.6,0-2.1,0.5-2.1,2.1c0,11.2-0.1,22.4-0.2,33.6
		c0,1.5,0.6,1.9,2,1.9c4.9-0.1,9.7,0,14.6-0.2c2.2-0.1,4.1,0.3,5.7,1.9c0.8,0.8,1.7,1.4,2.6,2.2c3.5,3,3.5,3,0,5.7
		c-1.7,1.3-3.1,3-5.1,3.9c-5.6,0.4-11.2,0.3-16.8,0.5c-1.3,0-2.6,0.1-3.6,1.1c0,1.7,0,3.4-0.1,5.1c-0.5,0.6-1.3,0.4-1.9,0.4
		c-4.9-0.2-9.9-0.1-14.8,0.4C223.4,363.7,223.1,363.6,222.9,363.3z"/>
	<path class="st17" d="M205.1,264.9c2.7,2.1,6.1,3.2,8.9,5.1c1.2,0.5,1.7,1.3,1.2,2.6c-1.1,2.9-2,5.9-3,8.8c-0.6,1.7-2,1.9-3.3,1.9
		c-10.6,0.3-21.1,0.3-31.7-1.3c-8.4-1.2-16.6-2.8-24.4-6.1c-2.4-1-4.7-2.2-6.8-3.7c-0.7-0.5-1.6-1-1.4-2c0.2-0.8,1.1-1,1.9-1.2
		c1.6-0.5,3.3-1,4.9-1.6l0,0c7.6-1.8,15.1-3.8,22.9-4.4c6.4-0.4,12.6-2.3,18.9-3c1.2-0.1,2.4,0.1,3.6,0.1
		C199.8,261.3,202.3,263.4,205.1,264.9z"/>
	<path class="st18" d="M492.6,367.6c-1.8-1.2-2.6-0.3-2.6,1.5c-0.1,2.9,0,5.7,0,8.6c0,9,0,18,0,27.1c0,0.8,0,1.7-0.2,2.8
		c-1.9-3.1-4.8-2.3-7.5-2.4c-0.8,0-1.5,0.1-2.1,0.7c-1.2,1.2-2.4,2.3-4.3,1.4c-0.1-0.1-0.4-0.1-0.5,0c-3.2,2.9-2.2-0.9-2.8-1.9
		c-0.3-0.4-0.2-1.2-0.2-1.8c0-13.1,0-26.2,0-39.3c0.7-1.3,1.9-1.8,3.3-1.7c8.5,0.6,17.1,0.2,25.7,0.9c4.1,0.3,8.1,0.1,12.2,0.5
		c1.2,0.1,2.2-0.5,2.9-1.5c0.7-1.1-0.4-1.7-1-2.4c-0.9-1.1-1.8-2.1-2.7-3.2c-0.6-0.7-1.4-1.4-0.7-2.5c2.5,1.9,4.3,4.5,6.4,6.7
		c0.9,0.9,0.3,1.6-0.4,2.1c-2.3,1.9-4.5,3.7-6.8,5.6c-0.7,0.6-1.5,0.9-2.4,0.7C503.4,369.1,498,368.3,492.6,367.6z"/>
	<path class="st0" d="M550,301.8c3.9,0,7.2,1.7,10.3,3.8c1.1,1.4,4,2,2,4.8c-0.3,0.5,0.6,0.7,1,0.9c3.2,1.7,6.8,1.8,10.3,2.3
		c1.4,0.2,2.9,0.2,4.3,0.6c0.2,0.2,0.3,0.4,0.3,0.6c-1.2,1.6-2.1,3.4-4.3,3.9c-1,0.3-1.2,1.4-1.5,2.3c-1.5,3.7-2.1,7.9-5.4,10.6
		c-3.8,3.1-7.5,6.5-12.3,8.1c0,0.8,0.8,1.5,0.5,2.3c-0.2,0.2-0.4,0.2-0.7,0.1c-1-1.4-2-2.9-3.6-3.7c-2.5-0.6-5-0.2-7.5-0.2
		c-4.1-0.1-4.6-0.8-3.2-4.6c2.2-1.2,4.2-2.7,5.4-5c0.7-0.6,1.4-0.9,2.3-0.8c2,0,4.1,0.1,6.1-0.4c0.1,0,0.5,0.3,0.4-0.1
		c0-0.1-0.4-0.3-0.6-0.4c-1.4-1.4-3.2-2.6-3.4-4.9c0-0.4,0.2-1-0.6-0.5c-0.9,0.7-1.5,1.6-2.2,2.6c-2.1,2.4-4.2,2.2-5.3-0.6
		c-2.3-5.9-4.2-12-4.7-18.3c-0.3-3.1,0.2-3.5,3.4-3.5C544.2,301.7,547.1,301.4,550,301.8z"/>
	<path class="st19" d="M139.9,292c0.6-0.7,1.4-0.6,2.2-0.6c6,0,11.9,0,17.9-0.1c1.7,0,2.4,0.4,2.4,2.3c-0.1,8.3-0.1,16.6-0.2,24.9
		c-0.4,3.7-0.3,7.5-0.1,11.2c0.2,4.5-0.9,9-0.4,13.5c0.1,0.9-0.3,1.8-1.3,2c-1.1,0.2-1.5-0.6-1.9-1.4c-0.4-0.9-0.6-1.8-0.6-2.8
		c-0.2-1.7-1.1-2.5-2.8-2.2c-2.2,0.4-4.4,1-6.7,0.8c-1-0.1-1.3,0.7-1.5,1.5c-0.1,0.5-0.2,1-0.4,1.5c-0.3,0.7-0.5,1.7-1.5,1.5
		c-1.1-0.2-0.7-1.3-0.7-2c0-14.8,0-29.5,0-44.3c0-0.9,0.3-1.9-0.3-2.8c-1.3-0.7-1.9-2.4-3.6-2.6C140.3,292.3,140.1,292.2,139.9,292z
		"/>
	<path class="st20" d="M329.7,338.4c0.6,0.1,0.9,0.5,1.1,1c0.6,1,1.2,1.1,1.5-0.1c0.3-1,0.2-2.3,1.5-2.4c1.6-0.1,3.3-1.1,5,0.3
		c1.3,1.1,2.6,2.6,4.8,2.1c0.6-0.1,0.8,0.8,1.1,1.3c0.8,1.5,2,2.5,3.7,3.2c-1.3-2.5-2.6-5.1-4-7.6c-0.6-1-1.3-1.9-1.1-3.1
		c3.2,5.4,6.3,10.9,8.9,16.7c-0.1,0.9-0.1,1.9,1,1.9c1.2,0,1-1.2,1-2c0-3.8,0-7.5,0-11.3c3-5.6,7.6-6.5,12.7-5.8
		c1.6,0.2,2.6,1.3,3,2.9c0.7,2.7,1.1,5.4,1,8.2c-0.1,1.2-0.1,2.4,0.5,3.6c0,4.3,0,8.5,0,12.8c0,1.5,0,2.1-2.1,2
		c-7.5-0.3-14.9-0.3-22.4,0c-3.3,0.1-5.2-0.9-6.4-3.9c-0.3-0.8-0.6-1.7-1.6-1.9c-1.9-3.2-3.8-6.5-5.2-9.9c1.1-0.5,1.1,0.6,1.6,1.1
		c-0.5-1.3-2.1-1.9-2.1-3.4c0-0.1-0.3,0.3-0.5,0.4C331.4,342.5,330.5,340.5,329.7,338.4z"/>
	<path class="st21" d="M32.9,352c-1-0.1-1.4-1.1-2.1-1.5c-4.6-3.7-6.9-8.9-9.5-13.9c-0.3-0.6-0.4-1.3,0.2-1.9
		c1.3-0.1,1.8,0.9,2.4,1.7c1.3,1.9,3.1,2.5,5.4,2.5c4.1-0.1,8.1-0.6,11.9-2.4c2-1,2.1-1.7,0.2-3c-3.5-2.3-6.7-4.9-9.6-7.9
		c-2.2-2.4-3.3-5.2-3.8-8.4c-0.6-3.5-0.7-3.5-4.2-3.2c-1.5,0.1-3.1,0.8-4.5-0.1c-0.6-1.2-0.3-2.2,0.6-3.2c1.4-0.8,2.8-1.1,4.4-0.9
		c1.3,0.2,2.6,0.4,3.9,0.4c0.9-0.1-0.2-0.6,0.2-0.8c3.1-0.8,6.3-1.1,9.4-2.2c1.4-0.5,2.3-0.9,1.4-2.7c-0.8-1.5,0-2.6,1.3-3.5
		c1.1-1,2.2-1.8,3.6-2.1c3.6-1.9,6.7-1.5,9.1,2.1c0.1,0.1,0.2,0.3,0.4,0.4c4.8,3.1,5.2,7.7,4.6,12.7c-0.3,2.3-1.5,4.2-2.7,6.1
		c-0.5,0.8-1.5,1.2-2.5,0.8c-0.7,0-0.4-1-1-1.1c-0.7-0.6-1.2-1.5-1.9-2.2c0.1,0.9,0.4,1.7,0.3,2.5c-0.1,1.1-0.7,1.7-1.7,2.1
		c-0.9,0.3-1.8,0.7-2.6,0.8c3-0.2,6.1-0.2,8.9,1.6c2.7,1.8,4.6,4.1,5.2,7.4c0.2,1.4,0,2.2-1.6,2.1c-0.3,0-0.5,0-0.8,0
		c-7.1,0.2-8.2,0.9-10.7,7.6c-2.7,3.6-3.8,7.6-3.7,12.1c0.1,2.4-1.2,3.2-3.2,1.8C37.8,353.9,35.3,353.1,32.9,352z"/>
	<path class="st22" d="M548.3,398.4c-3-5.3-7.8-8.8-12.5-12.5c-1.3-0.8-2.8-1.2-4.2-0.6c-2,0.8-2.1-0.4-2.1-1.8c0-3.2,1.7-5.3,4.2-7
		c0.5-0.5,1.1-1,1.6-1.5c1.2-1.1,2.5-1.9,3.9-2.7c1.8-0.7,3.3-1.4,1.2-3.5c-0.8-0.8-0.6-1.9,0.1-2.9c0.9-0.9,2-1.1,3.2-1.3
		c3.7-0.6,7.5-0.4,11.1-1.7c1.8,0,3.3-0.7,4.8-1.7c1.8-1.2,4.1-1.5,6.2-1.7c1.5-0.2,1.2,1.3,1.1,2.4c-0.4,3.4-0.9,6.7-1.9,10
		c-1.5,5.1-2.5,10.3-5.4,14.9c-0.2,0.4-0.3,0.8-0.6,1.1c-2.8,2.7-4,6.2-4.7,9.9c-0.4,2-2.4,0.5-3.4,1.5
		C549.6,401,549.1,399.2,548.3,398.4z"/>
	<path class="st20" d="M511.9,354.5c1.1,2.6,3.3,4.4,5.1,6.4c1,1.1,0.6,1.5-0.1,2.5c-1.9,2.4-4.5,1.5-6.7,1.4
		c-6.2-0.3-12.4-0.8-18.6-0.9c-5,0-10-0.3-14.9-0.5c-1.6-0.1-3,0.2-4.4,1c0-0.5,0-1-0.1-1.5c-0.4-3.7-0.4-7.3,0-11
		c1.7-1.8,1.1-4.2,1.5-6.3c0.2-1.1,0-2.3,0.1-3.4c0.5-3.2,1.8-4,5-3.1c0.6,0.2,1.3,1,1.9,0.3c1.5-1.9,2.7-0.9,4.4-0.3
		c1.6,0.6,2.4,1.4,2.8,2.9c0.1,0.4,0.6,0.8,1,1.2c0.7-0.8,0.4-1.6,0.4-2.3c0-9.9,0-19.8,0-29.7c0-3.3,0.5-3.6,3.8-3.4
		c3.5,0.2,7.1,0.1,10.7,0.2c1,0,1.6-0.6,2.1-1.3c0.5-0.7,0.9-1.5,1.8-1.8c-1.1,3.1-2.9,4.5-6.4,3.9c-2.9-0.5-5.9-0.2-8.8-0.4
		c-1.5-0.1-2.2,0.4-2.2,2c0.1,12.7,0.1,25.3,0.1,38c0,1.1,0.2,1.7,1.5,1.8c4.9,0.4,9.8,1.1,14.8,1.4
		C509.1,351.9,510.7,352.6,511.9,354.5z"/>
	<path class="st22" d="M62.6,369.2c2.9,2.4,6.3,4.4,8.1,7.9c0.5,0.9,0.9,1.8,1.4,2.8c0.2,0.5,0.5,1,0.1,1.5c-0.5,0.5-0.9,0-1.4-0.2
		c-0.9-0.4-1.8-0.8-2.5-1.3c-2.2-1.6-4.5-1.5-6.5,0.2c-4.3,3.6-9,6.9-11.7,12.2c-1.2,2.3-1.1,3.8,0.7,5.4c1.1,1,2,2.1,3,3.2
		c0.6,0.8,0.9,1.4-0.5,1.4c-2.4-0.1-4.6-0.6-5.4-3.3l0,0c-1.5-2.8-2.6-5.8-3.1-9c-0.4-2.4-2.3-4.1-3.9-5.7c-3-3.2-5-6.8-6.1-11
		c-0.5-3.7,0.3-7.6-0.8-11.3c-0.2-0.8,0.2-1.5,0.5-2.2c0.5-0.9,0.6-1.8-0.5-2.5c-0.5-0.3-1.1-0.7-0.7-1.4c0.4-0.7,1.1-0.8,1.8-0.6
		c1.7,0.4,3.4,0.6,5.1,0.9c0.3,0,0.5,0.1,0.8,0.2c4.9,3.8,10.7,4.3,16.5,4.6c2,0.7,3.1,2.4,4,4.2c0.7,1.4,0.2,2.3-1.5,2.2
		C60.9,367.8,61.8,368.6,62.6,369.2z"/>
	<path class="st23" d="M330.3,292.5c8.5,3.1,17.4,3.6,26.3,3.1c9.4-0.6,18.5-2.6,25.7-9.5c4.3-4.1,4.2-4.2,0.7-8.8
		c2.8,1.2,4.4,3.8,6.7,5.6c5.6,4.3,10.8,9.2,17.4,12c0.8,0.3,1.8,0.7,1.7,1.7c-0.1,1.2-1.3,0.9-2.1,1.1c-12.6,3.8-25.4,5.2-38.5,4.5
		c-10-0.6-19.9-2.5-29.3-6.2c-2.4-0.9-4.9-1.7-7.4-2.5C331.1,293.4,330.6,293.1,330.3,292.5z"/>
	<path class="st23" d="M211.4,43.7c-3.5-0.6-6.4-2.9-10-3.4c-5.8-0.9-10.9,0.7-15.7,3.8c-1.1,0.7-1,1.5-0.1,2.3
		c0.6,0.5,1.2,1.1,1.9,1.2c6.2,1.2,12.3,3.1,18.8,3.5c4.9,0.3,9.8,0.4,14.7,0.4c5,0,9.9-0.9,14.9-1.3c5.1-0.4,10.1-1.3,15.1-2.3
		c-1.9,1.7-4.6,1.7-6.6,3.2c-4.6,3.3-10,5.3-15.3,6.8c-4.1,1.2-8.2,2.7-12.3,3.9c-1.9,0.6-3.8-0.4-5.7-0.4
		c-7.8,0.1-15.6-0.2-23.3-1.5c-0.6-0.1-1.2-0.1-1.7-0.6c-3-2.8-6.6-4.4-10.4-5.7c-1.5-0.5-1.6-1.3-0.4-2.2c3.9-3,7.3-6.6,11.6-9.1
		C194,38.2,204.7,38.6,211.4,43.7z"/>
	<path class="st23" d="M408.1,254.9c-2.5,1.1-5.1,0.8-7.6,0.3c-8.2-1.5-16.4-3.3-24.6-5c-0.3-0.1-0.7-0.2-1-0.3
		c-0.5-0.2-1.4-0.1-1.4-0.9c0-1,1-0.8,1.6-0.8c5.3-0.4,10.7-0.7,16-1c1.2-0.1,1.8-0.6,2.3-1.7c3.8-8.9,6.1-18.2,7.4-27.9
		c0.5-3.3,0.1-6.6,0.6-9.8c0.1-0.8,0.2-2.1-0.8-2.6c-0.8-0.4-0.8,1-1.5,1.1c0-0.1,0-0.2,0-0.3c0.1-1.9,0.2-4.5,1.9-5
		c1.6-0.5,2.5,1.9,3.6,3.2c4.9,5.8,8.3,12.3,9.4,19.9c0.7,4.8,0,9.5-1.8,14c-0.9,2.1-1.7,4.3-3,6.3c-1.1,1.6-2.5,2.5-4.3,2.6
		c-5.9,0.4-11.7,0.8-17.6,1.1c-3.4,0.2-6.8,0.8-10.3,1C387.4,251.4,397.4,255.1,408.1,254.9z"/>
	<path class="st24" d="M186.3,170.5c-1.8-4.4-4.5-8-8.4-10.8c-1-0.7-2.2-0.9-3.1-1.7c-2.8-1.4-4.7-3.8-6.3-6.4
		c-2.5-4.1-5.4-8-7.6-12.4c-2.3-4.6-4-9.4-5.2-14.4c-0.5-2.2-0.4-4.3,0.1-6.4c0.2-0.7,0.4-1.5-0.8-1.7c-3.3-0.7-4.5-2.5-5-5.8
		c-0.7-4.8,1.9-8.2,4.5-11.7c0.3-0.4,0.7-0.8,1-1.2c3.1-2.6,3.7-2.4,4.6,1.6c2,8.9,3.8,17.9,4.4,27.1c0.5,8.1,1.9,16.2,6.6,23.1
		c3.7,5.3,8.4,9.4,14.8,11.5c3.8,1.3,7.4,3.3,10.8,5.5c0.6,0.4,1,0.9,1.6,1.3c1.9,1.6,2.7,5.8,1.3,7.8c-0.7,1-1.6,0.7-2.5,0.3
		c-0.8-0.4-1.5-1.3-2.5-0.5l0,0C191.3,176.6,187.4,174.2,186.3,170.5z"/>
	<path class="st25" d="M232.8,88.1c-1.4,1.8-4.2,2.1-4.7,4.8c-3.5,4-7.2,7.8-9.6,12.6c-5.5,10.9-4.1,21.3,4.3,30.2
		c2.1,2.3,4.4,4.5,6.8,6.4c1,0.8,1.2,1.6,0.6,2.9c-5.6,11.7-9.3,23.9-10.8,36.8c0,0.3-0.1,0.7-0.1,1c0,0.8-0.4,1.7,0.3,2.2
		c0.8,0.6,1.5-0.2,2.1-0.6c7.4-3.9,15.2-6.4,23.5-7.3c0.7-0.1,1.6,0.1,1.9-0.6c0.5-0.9-0.5-1.4-0.9-1.9c-1.9-2.6-2-2.6,1.2-3.6
		c7.5-2.5,15-4.9,22.5-7.5c1.8-0.6,2.7-0.4,3.4,1.4c0.9,2.4,2,4.8,3.2,7.1c0.5,1.1,0.5,1.9-0.8,2.5c-6.8,3.1-13.6,6.2-20.3,9.4
		c-1.1,0.5-1.7,0.3-2.4-0.7c-1.3-1.8-2.7-3.4-4-5.2c-0.9-1.3-1.5-1-2.2,0.2c-2.9,4.8-5.9,9.6-8.3,14.7c-0.2,0.5-0.6,1-0.9,1.5
		c-0.5-3.5,0.6-6.4,3.4-8.7c1.3-1.1,1.6-3,2.8-4.3c0.5-0.5,0-0.9-0.4-1.3c-0.5-0.6-1.1-1.1-2-0.8c-4.8,1.8-10.2,2.1-14.6,5.1
		c-1.8,1.2-3.9,1.3-5.9,1.8c-1.2,0.3-2.2-0.4-2.2-1.8c0.3-7.4,0-14.8,3-21.8c0.8-1.9,1.2-3.9,1.7-5.9c0.5-2.3,1.1-4.4,2.6-6.4
		c2.6-3.3,2.2-7.3-0.9-10.3c-2.5-2.5-4.4-5.5-6.4-8.3c-0.5-0.6-0.9-1.2-1.6-1.6c-1.9-1.1-2.9-3-3-4.9c-0.2-4.5-0.7-9.1,0.1-13.4
		c0.6-3.1,1.5-6.8,4.7-8.9c0.8-0.5,1-1.3,1-2c0.1-2.3,1.6-3.5,2.9-5c2-2,3.9-4.2,5.8-6.3C229.8,88.5,231,87.8,232.8,88.1z"/>
	<path class="st26" d="M151.3,267.4c-1.9,1.6-4.6,1.3-6.7,2.9c5.3,4.2,11.4,6.4,17.7,8.1c7.6,2.1,15.4,2.8,23.2,3.8
		c7.3,0.9,14.5,0.8,21.8,0.9c2.7,0,4.6-0.6,5.2-3.7c0.4-2.1,1.2-4.2,2.1-6.2c0.5-1.3,0.4-2.3-0.6-3.2c1.8,0.1,2.3,0.9,1.6,2.6
		c-1.1,2.9-2.1,5.9-3.1,8.8c-0.6,1.8-1.5,2.4-3.4,2.4c-10.1,0-20.1,0.2-30.2,0.2c-2,0-2.9,0.5-2.9,2.6c0,1-0.1,1.9-0.1,2.9
		c0,3.6,0,3.4-3.6,3.6c-2.2,0.1-2.8-0.8-2.8-2.9c0-6-0.1-6-6.1-6c-1.7,0-3.3-0.1-4.9,0c-2.4,0.3-3.4-0.7-3.1-3.1
		c0.1-0.6-0.1-1.2-0.1-1.9c-1.5,0.1-1.8,1.4-2.3,2.3c-1.2,1.9-2.7,2.9-5.1,2.8c-7.8-0.1-15.6,0-23.5-0.1c-0.7,0-1.7,0.4-2.2-0.4
		c-0.5-1,0.6-1.5,1.1-2.1c4.3-5,10.1-7.9,16.1-10.3C143.3,269.7,147.1,267.8,151.3,267.4z"/>
	<path class="st27" d="M204,218.4c-1.3,5.3-4.7,9.1-8.4,12.9c-4,4.1-4.1,4.1-0.6,8.6c2.9,3.8,6.6,6.7,10.5,9.5
		c4.3,3,8.9,5.6,13.3,8.5c1.9,1.3,4.2,1.9,6.4,2.7c1.3,0.5,1.8,1.2,1.9,2.7c0.2,8.9,7.3,14.2,14,15.8c3.5,0.8,6.4,0.1,9.4-1.4
		c0.8-0.4,1.7-0.7,1.1-1.9c1.7,0.4,2,1.1,0.3,2c-4.9,2.6-10.3,3.9-15.8,4.8c-4.5,0.7-9,1.5-13.6,0.6c-1.8-0.3-2.5-0.5-1.8-2.5
		c1.9-5.3,3.6-10.6,5.3-15.9c0.9-2.8,0.4-3.5-2.4-2.5c-7,2.6-11.9-1.9-17.2-4.8c-6.4-3.6-12.4-7.9-18.1-12.5
		c-1.7-1.4-3.3-3.1-4.9-4.7c-0.7-0.7-0.8-1.3,0.3-1.8c8.9-4,15.1-10.7,19.4-19.3C203.3,218.9,203.7,218.7,204,218.4z"/>
	<path class="st28" d="M115.5,291.9c-2.6-0.7-5.3-0.4-8-0.4c-15.1-0.3-30.2,0.9-45.4,0.4c0.1,0.4,0,0.8,0.2,0.9
		c3.9,2.7,4.3,6.6,4.2,11c-0.2,6.5-0.1,13-0.1,19.9c1.5-1.4,1.2-2.9,1.5-4.2c1.1-4,1.8-4.6,5.9-4.5c1.4,0,2.8-0.1,4.1-0.6
		c1.5-0.7,2.7-0.5,3.4,1.2c0.2,0.4,0.3,0.9,0.9,0.8c0.6-0.1,0.8-0.6,0.9-1.2c0.2-1.5,0.6-3.1,0.5-4.6c-0.1-2.3,1-2.9,3-2.9
		c2.7,0.1,5.4,0,8.1,0c0,0.2-0.1,0.4-0.1,0.5c-2.4,0.1-4.9,0.4-7.3,0.3c-2.2-0.1-3,0.6-3,3c0.1,11.1,0,22.2-0.1,33.4
		c0,0.9,0.5,2.7-0.6,2.6c-1.4-0.1-0.7-1.8-0.8-2.9c-0.1-1.2-0.1-2.4-0.3-3.6c-0.4-4.1-0.4-4.2-4.7-5c-3.4-0.7-6.8-1.3-10.3-1.6
		c-1.8-0.2-2.3-0.6-2.3-2.5c0.1-10.4,0-20.9,0.1-31.3c0-2.6-0.5-4.5-2.6-6.1c-0.5-0.4-0.9-0.8-1.3-1.3c-0.5-0.6-1.6-0.9-1.1-1.8
		c0.4-0.8,1.4-0.3,2.2-0.4c1-0.1,2.1,0,3.1,0c15.6,0,31.1-0.1,46.7-0.1C113.4,290.9,114.8,290.5,115.5,291.9z"/>
	<path class="st29" d="M251,47.9c1.9-1.6,4.3-1.7,6.5-2.4c4.6-1.5,9.4-2.2,14.1-2.8c0.7-0.1,1.4,0,2,0.3c6.9,3.7,14.6,4.2,22.1,5.6
		c3.1,0.6,6.1,1.2,9.1,1.8c5.7,1.2,11.6,1.1,17.4,1.8c3.5,0.4,7,0.3,10.6,0.7c3.2,0.4,6.5-0.2,9.8,0.1c2.1,0.2,3.6-1.5,5.5-2
		c-1.5,1.4-3,2.8-4.5,4.2c-0.5,0.5-1.1,0.4-1.7,0.2c-5.2-1.1-10.5-1.6-15.7-1.3c-4.7,0.3-9.5,0.4-14.2,1.4
		c-5.1,1.1-10.2,0.6-15.3,0.1c-5.7-0.7-11.5-0.5-16.9-2.2c-5.5-1.8-11.1-3.3-16.9-3.5c-0.4,0-1,0.1-1.1-0.5c-0.1-0.7,0.4-0.8,0.9-1
		c3.2-1.3,6.3-2.7,10.2-4.3c-2-0.6-3.2-0.4-4.4-0.2c-5.2,0.8-10.3,2-15.3,3.7C252.4,47.8,251.7,47.8,251,47.9z"/>
	<path class="st30" d="M554.6,342.1c0.2,0,0.4,0,0.5-0.1c3.5,4.6,6.2,9.6,5.8,15.8c7.2-3.3,11.3-9.4,15-15.8c3-5.3,5-11.1,5.9-17.1
		c0.6-2.3,0.2-4.6,0.3-6.9c0.1-2-1.7-2-3-2.4c-0.4-0.1-0.7-0.3-1-0.6c0-0.2,0-0.3,0-0.5c0.7-0.4,1.4-0.3,2.1-0.1
		c12.1,4,16,16.8,8.2,26.7c-5.2,6.6-12.5,10.6-19.8,14.5c-2.4,1.2-4.9,2.3-7.3,3.4c-1.4,0.6-2,0.1-1.9-1.3c0.2-4.6-0.9-8.7-3.8-12.4
		C555,344.4,554.6,343.2,554.6,342.1z"/>
	<path class="st23" d="M384,274.8c1.8-0.4,3.2,0.7,4.6,1.4c1.5,0.7,2.5,0.4,3.9-0.1c7.8-3,14.5-7.7,20.5-13.4c2.5-2.4,4.7-5.1,7-7.7
		c0.5-0.5,1.1-1.3,0.7-2.1c-0.6-1-1.4-0.1-2.1,0c-1.6,0.2-3,1.4-4.8,1c2.6-1.7,5.6-2.1,8.4-3.4c1.4-0.7,1.6,0.4,1.6,1.5
		c0.1,4-1,7.7-2.2,11.4c-1.2,3.4-3,6.5-5.1,9.5c-3,4.1-7,6.9-11.3,9.3c-1.4,0.8-2.7,0.7-4.4,0c-4.9-2.1-9.6-4.7-14.8-6.1
		C385.2,275.9,384.7,275.2,384,274.8z"/>
	<path class="st31" d="M218.7,153.8c-0.1-2.5,1.2-4.6,2.1-6.8c0.4-0.9,0.6-1.6-0.2-2.4c-3.7-3.4-6.8-7.3-9.8-11.4
		c0.5,3.3,1.1,6.6,1.6,9.9c0,0.2,0.1,0.6,0.3,0.7c3.3,1.8,1.6,3.5,0.4,5.8c-1.8,3.4-1.4,7.7-2.9,11.3c-3.1,7.6-1.4,15.9-3.6,23.6
		c-1,3.7-2.1,7.3-3.2,11c-0.2,0.5-0.5,0.9-1,1.1c-0.2-0.1-0.2-0.2-0.2-0.4c0-0.1,0.1-0.2,0.1-0.2c1.4-5.5,3.2-10.9,4.2-16.5
		c0.5-2.7,0.8-5.6,0.8-8.2c0-4.3,1.3-8.2,2.4-12.1c4-13.8,1-26.4-5.5-38.7c-4.3-8.1-10.4-14.6-17.3-20.5c-0.6-0.5-1.1-1-1-1.7
		c0.2-0.8,1.1-0.7,1.7-0.8c5.2-1,10.5-1.9,15.7-3.1c3.6-0.8,7.3-1.4,10.7-3c1.2-0.6,2.5-0.7,3.8-0.8c0.5,0,1.2-0.7,1.5,0.3
		c0.2,0.7-0.3,1.1-0.9,1.4c-1.8-0.2-3.4,0.4-5.1,0.9c-7.2,2.2-14.6,3.7-22.1,4.9c-0.4,0,0.1,0.4-0.1,0.1c0,0,0.1-0.1,0.2-0.1
		c3.6-0.4,7.2-0.7,10.9-1.2c0.2,0,0.3-0.1,0.5-0.1c1.9,0,4.1-0.5,5.2,1.4c1,1.8-0.6,3.2-1.6,4.6c-2.4,3.3-3,7.1-3.4,11.1
		c-0.1,1.4,0.8,2.5,1.4,3.6c0.7,1.5,1.4,2.9,2.2,4.6c-0.8-7.9,1.1-15.1,4.8-21.8c0.5-0.8,0.8-2,2.2-1.8c-0.5,3.1-2.8,5.5-3.8,8.5
		c-3.2,9.5-2.5,18.4,2.8,27c2.3,3.7,4.9,7.1,8.1,10c0.9,0.8,1.1,1.5,0.6,2.7C220.6,149,219.7,151.4,218.7,153.8z"/>
	<path class="st32" d="M21.4,334.8c1.2,4.5,4.1,8,6.5,11.8c0.8,1.4,1.9,2.6,2.9,3.9c-8.7-4.3-17.1-9.1-21.7-18.1
		c-4.4-8.5,0.3-19.1,9.1-21.6c0.6-0.3,1.2-0.4,1.7,0.1c-0.3,1-0.8,2-0.6,3.1c-1.6,6.4-0.8,12.6,1.8,18.6
		C21.4,333.2,21.6,334,21.4,334.8z"/>
	<path class="st33" d="M424.7,273.7c1.8-3.3,3.4-6.7,4.4-10.2c0.4-1.5,1-2,2.6-1.4c3.7,1.5,7.5,2.6,10.9,4.9c2.1,1.4,3.4,3.3,3.2,6
		c-0.1,0.8-0.1,1.9-0.8,2c-1.9,0.4-1.3,1.7-1.2,2.9c-1.7,1.8-4.1,2.1-6.4,2.5c-4.4,0.8-8.8,0.7-13.2,0.1c-3.1-0.4-3.2-1-1.5-3.5
		C423.4,275.9,424.2,274.9,424.7,273.7z"/>
	<path class="st34" d="M80.9,357.1c2-2.2,1.2-5.3,3.1-8.1c0.1,1.5,0.2,2.5,0.2,3.5c0,12.2-0.1,24.5-0.1,36.7c0,0.6,0.3,1.3-0.3,1.7
		c-0.8,0.5-1.1-0.5-1.6-0.9c-0.1,0-0.1-0.1-0.2-0.2c-2.9-2.3-4.8-4.9-5.2-8.9c-0.6-5.8-4.7-9.7-9.5-12.6c-1.8-1.1-3-5.6-1.9-7.3
		c0.2-0.3,0.7-0.6,1.1-0.6c4.6-0.4,9-1.9,13.5-2.9c0.1,1.6-1.3,1.6-2.3,2c-2.6,0.9-5.3,1.6-8.1,2c-0.7,0.1-1.4,0.1-2,0.5
		c-0.6,0.3-0.9,0.8-0.7,1.5c0.2,0.6,0.7,0.7,1.2,0.8c0.4,0,0.9,0,1.3,0c3.7-0.3,7.4-0.7,11.2-0.5c1.6,0.1,2.4-0.7,2.4-2.4
		c0-2-0.1-4,0.4-6.5C82.8,356.5,82.6,357.9,80.9,357.1z"/>
	<path class="st35" d="M525.4,348.2c1.2-0.6,2.8-0.2,3.8-1.4c-0.7-0.8-1.7-0.4-2.5-0.5c-0.8-0.1-1.8,0.1-1.9-1
		c-0.1-1.1,0.9-1.4,1.8-1.5c2.4-0.4,4.8-0.9,7.2-1.1c4.3-0.3,8.7-0.4,13-0.7c2.2-0.2,3.4,1,4.1,2.9c0.7,2-1.2,2.4-2.3,3.2
		c-0.5,0.4-1.1,0.8-1.7,1.2c-0.1,1.4,1,1,1.6,0.9c1.3-0.2,2.6-0.1,3.9-0.2c0.9-0.1,1.5,0.4,1.7,1.3c0.2,0.8-0.4,1.3-1,1.6
		c-0.4,0.3-0.9,0.5-1.4,0.6c-5.2,1.3-10.5,2.2-15.9,1.3c-2.9-0.5-5.9-0.7-8.6-1.7C524.6,352.3,524,350.7,525.4,348.2z"/>
	<path class="st36" d="M54.7,344.7c-1.2-0.7-2.6-1.2-3.1-2.6c-0.5-1.5,1.5-3.8,3.4-3.8c5.7,0,11.4,0,17,1.1c1.3,0.4,2.7,0.4,4,0.8
		c0.7,0.2,1.4,0.5,1.4,1.2c0,1-0.9,0.8-1.6,0.8c-1,0.1-2.1-0.3-3,0.6c0.3,1.3,1.5,0.9,2.3,1.1c2.9,0.7,3,0.8,2.6,3.8l0,0
		c-0.6,0.8-1.3,1.3-2.3,1.5c-8.4,2.4-16.7,2.4-25.1,0.1c-1-0.3-1.8-0.7-1.6-1.9c0.2-1.4,1.2-1.2,2.2-1.1c1.1,0.1,2.3,0,3.4,0
		c0.6,0,1.4,0.3,1.5-0.5C56,345.3,55.3,344.9,54.7,344.7z"/>
	<path class="st37" d="M155.5,98c-1.1,1.8-2.2,3.7-3.3,5.5c-2.1,3.5-2,7.1-0.3,10.8c0.7,1.6,1.7,2.3,3.5,1.7
		c1.4-0.4,1.8,0.2,1.3,1.5c-1.4,3.5-0.5,7,0.5,10.4c1.9,6.3,4.5,12.4,8.4,17.8c3,4.2,5.1,9,9.2,12.3c-4.2-1.6-7.7-4.3-10.8-7.5
		c-5.2-5.4-8.8-11.9-10.8-19.1c-1.1-3.8,0.3-7.5,1.6-11.1c0.3-0.9,1.2-1.8,0.3-2.6c-0.8-0.8-2-0.5-2.9,0c-1.7,0.9-3.5,1.4-4.9,2.9
		c-0.5,0.5-1,1.2-1.8,0.7c-0.8-0.5-0.5-1.4-0.3-2.1c0.8-2.5,1.6-4.9,2.4-7.4c1.4-4.1,2.7-8.2,5.6-11.5C154,99.4,154.6,98.4,155.5,98
		z"/>
	<path class="st38" d="M309.5,81.8c-0.4,0.4-0.9,0.5-1.4,0.5c-10.6,0-21.2,1.5-31.8,1.1c-2.7-0.1-5.3-0.3-8-0.5
		c-0.7,0.7-1.6,0.6-2.5,0.5c-0.3,0-0.6-0.1-0.9-0.2c-7.6-0.3-15.2,0.1-22.8,0.7c-4-0.5-7.8,1-11.9,0.2c-2.8-0.6-3-1.7-2.6-3.8
		c0.1-0.5,0.6-1-0.1-1.4c-0.4-0.3-0.9,0-1.2,0.3c-3.6,4.1-8.7,4.6-13.6,6c-6.5,1.9-13,3.4-19.6,4.6c-3.6,0.7-7.3,1.3-11,1.8
		c-2.8,0.4-6.8-3.4-6.8-6.2c0-2.2,1.9-2.8,3.3-3.6c9.6-5.6,20.1-7.6,31.1-7.4c0.5,0,1,0,1.7-0.5c-2.9-0.9-5.9-1.8-8.9-2.6
		c-6.7-1.7-13.4-1.3-19.9,0.9c-0.9,0.3-2.2,0.7-2.9-0.4c-0.6-1.1,0.6-1.6,1.3-2.3c3.7-3.9,8.5-4.2,13.4-4.2c1.1,0,2.3,0.1,3.4,0.2
		c0.2,0.1,0.2,0.2,0.2,0.3c-0.1,0.1-0.1,0.2-0.2,0.2c-3.8,0.1-7.6-0.5-11.3,1c-1.5,0.6-2.9,1.4-4.3,2.4c-0.4,0.3-1,0.6-0.7,1.2
		c0.3,0.6,0.9,0.3,1.4,0.2c3.8-0.8,7.6-1.3,11.6-1.4c5.1-0.1,9.9,1.4,14.7,2.8c1.3,0.4,2.6,0.9,4,1.1c0.8,0.1,1.7,0.6,1.5,1.5
		c-0.1,0.9-1.1,0.6-1.8,0.6c-4.2,0.1-8.5,0-12.7,0.5c-7.6,0.8-14.8,2.8-21.3,6.7c-1.4,0.8-3.4,1.8-2.3,3.7c1.1,1.9,2,4.4,5,4.3
		c4-0.1,7.9-1.2,11.8-1.9c7.3-1.2,14.3-3.5,21.5-5c4.9-1,8.7-3,12.1-6.3c0.4-0.4,0.8-1,1.5-0.6c0.6,0.4,0.6,1,0.6,1.6
		c0,0.3,0,0.5,0,0.8c-0.5,4.1-0.5,4.1,3.6,4.1c6.3,0.1,12.4-1.2,18.6-1.5c5.3-0.2,10.6-0.5,15.9,0c8.9,0.7,17.9,0.4,26.8,0.3
		c3.9,0,7.8-0.3,11.7-0.5C307,81.5,308.2,81.3,309.5,81.8z"/>
	<path class="st39" d="M59.6,388.4c1,0.6,2,1.2,3.1,1.8c0.7-1.1-0.1-1.8-0.4-2.6c-0.5-1.4-0.8-2.5,0.6-3.7c1.4-1.2,2.6-1.4,4.2-0.4
		c3.9,2.3,7.6,4.8,10.9,7.9c0.7,0.6,2,1.2,1.1,2.5c-0.8,1.1-1.7,0.1-2.5-0.1c-0.3-0.1-0.6-0.2-1.1-0.4c0,1.9,3.8,2.6,1.4,5
		c-0.8,1.3-2,1.7-3.5,1.4c-4.7-0.8-8.9-2.8-12.8-5.4c-1.2-0.8-2-1.9-2.8-3c-0.5-0.8-0.8-1.5-0.3-2.4C57.9,388.1,58.7,388,59.6,388.4
		z"/>
	<path class="st40" d="M522.3,405.7c-3.1-2.3-0.3-3.8,1.1-5.7c-0.6,0-0.8,0-1.1,0c-1,0.1-2,1.7-3,0.3c-1.1-1.6,0.7-2.2,1.6-3
		c3.2-3,6.8-5.3,10.5-7.5c1.3-0.8,2.3-0.9,3.5,0.1c1.2,1.1,1.9,2.2,1.1,3.8c-0.4,0.8-0.6,1.7-0.9,2.7c2.2-0.1,3.5-3.2,5.8-1.2
		c0.8,1.1,0.1,2-0.6,2.7c-2.7,3.1-5.8,5.4-9.8,6.5c-1.8,0.5-3.5,1-5.2,1.6C524.4,406.4,523.3,406.4,522.3,405.7z"/>
	<path class="st1" d="M214,98.5c-3,2.9-4,6.8-5.2,10.6c-1.3,4.4-2,8.9-1,13.5c0.1,0.5,0.6,1-0.2,1.3c-0.7,0.2-0.8-0.4-1-0.9
		c-1.3-2.5-2.6-4.9-3.8-7.4c-1-2.1,0.1-4.3,0.5-6.3c0.5-2.7,1.4-5.3,3.4-7.5c0.8-0.8,1.8-2.1,1.3-3.2c-0.6-1.2-2.2-1.2-3.5-1.1
		c-4.5,0.4-8.9,1-13.4,1.4c-0.7,0.1-1.8,0.6-1.9-0.5c-0.1-0.8,0.9-0.8,1.6-0.9c8.4-1.2,16.6-3,24.7-5.6c1.1-0.4,2.3-1.3,3.1,0.4
		C217.1,94.3,215.5,96.4,214,98.5z"/>
	<path class="st41" d="M554,398.4c0.4-4.8,2.8-8.7,5.5-12.5c2.9-4.3,3.6-9.5,5.1-14.3c1-3.2,1.3-6.5,1.9-9.8
		c0.3-1.6-0.1-2.1-1.7-1.6c-2,0.7-4.2,0.5-5.9,2.3c-0.8,0.9-2.3,1.1-3.7,1c-0.1-1.4,1.2-0.4,1.6-0.9c2.5-1.3,4.9-2.8,7.8-3.1
		c1.6-0.2,2.6,0.1,3.4,1.6c3,5.6,2.8,11.3,1,17.1c-2,6.4-5.6,11.9-9.6,17.1c-0.8,1-1.4,1.3-2.1-0.1c-0.3-0.6-0.3-1.3-1.3-1.6
		c-0.7,1.8-0.5,4-1.9,5.5C554,398.8,553.9,398.6,554,398.4z"/>
	<path class="st42" d="M270.8,286.3c3,0.4,5.6,1.9,8.7,2.4c6.6,1.1,13.3,1.6,20,2.3c4.7,0.5,9.4,0.8,14.2,1.2
		c0.7,0.1,1.6,0.8,2.1-0.1c0.5-0.9-0.7-1.2-1-1.8c-0.2-0.3-0.4-0.6-0.5-0.9c3.6,1.7,6.2,4.9,9.3,7.3c1.2,0.9-0.4,1.1-1,1.1
		c-2.9,0-5.9,0.2-8.8-0.1c-8.9-0.8-17.7-2.5-26.4-4.8c-3.1-0.8-5.9-2.3-8.9-3.4C275.8,288.4,273,288.1,270.8,286.3z"/>
	<path class="st43" d="M525.4,348.2c-0.9,3-0.6,3.6,2.4,4.4c8.1,2.3,16.2,2.6,24.3,0.1c0.7-0.2,2,0,1.7-1.4
		c-0.3-1.1-1.3-0.9-2.2-0.8c-1.4,0.1-2.8,0.3-4.1,0.4c-0.6,0-1.3-0.1-1.4-0.9c-0.1-0.6,0.5-0.6,0.9-0.6c1.4,1.3,3,0.4,4.4,0.3
		c2.3-0.1,3.1,0.7,3.4,2.9c1,6.8,1.4,6.1-5.6,7.3c-7.6,1.3-15,0.1-22.4-1.9c-1.4-0.4-2.4-1.1-2.4-2.7c0-2.1,0-4.1,0-6.2
		C524.4,348.6,524.8,348.2,525.4,348.2z"/>
	<path class="st44" d="M54.7,344.7c1-0.1,1.9,0.5,1.9,1.4c-0.1,1.2-1.4,0.6-2.1,0.7c-1.3,0.1-2.6,0-3.9,0c-0.7,0-1.4,0.1-1.4,1.1
		c0,0.8,0.6,0.8,1.2,1c8.4,2.3,16.8,1.9,25.2,0.1c0.9-0.2,1.5-0.9,2.3-1.1c-0.2,1.5-1.6,1.7-2.6,2.3c-0.4,0.3-1.1,0.4-1,1.1
		c0.1,0.6,0.8,0.6,1.3,0.7c0.8,0.2,2.1-0.1,2.1,1c0,1.1-1.3,1-2,1.2c-8.5,2.4-17,3.4-25.7,1.3c-1.9-0.5-2.7-1.4-2.4-3.3
		c0-0.3,0-0.5,0.1-0.8c0.6-5.3,0.6-5.2,5.9-5.3C54.2,346.1,56.4,347,54.7,344.7z"/>
	<path class="st45" d="M424.7,273.7c-0.1,1.8-1.4,2.9-2.3,4.2c-0.5,0.8-1,1.4,0.4,1.5c7.1,0.8,14.1,1.5,20.8-2.1
		c0.3-0.3,0.7-0.3,1,0c2.4,1.2,4.3,2.9,5.9,5c0.6,0.8,1.1,1.5-0.4,1.8c-1.6,0.3-1,1.8-1.3,2.7c-0.3,0-0.5,0.1-0.6,0.1
		c-2.7-2.8-6.2-2.9-9.8-2.8c-7.2,0.1-14.3,0-22.4,0C419.5,280.6,421.9,277,424.7,273.7z"/>
	<path class="st46" d="M550,414c-0.7,8.7-4.7,15.6-11.7,20.9c-0.6,0.4-1.3,1.2-2.1,0.7c-0.7-0.4-0.4-1.3-0.4-1.9
		c-0.1-6.4-0.1-12.8-0.1-19.2c0-0.9-0.6-2.2,1.1-2.5c0.6,1.5,0.1,3.1,0.2,4.6c0.1,1.7,0.9,2.5,2.6,2.5c3-0.1,5.6-1.1,7.7-3.2
		C548.2,415.1,548.6,413.9,550,414z"/>
	<path class="st47" d="M550,414c-2.8,3.6-6.2,5.9-10.9,5.7c-1.8-0.1-2.7-0.9-2.6-2.7c0.1-1.7-0.3-3.5,0.4-5.1
		c3.2-2.8,7.8-2.3,11.3-4.8c-0.8-0.8-1.7,0.1-2.5-0.9c1.5-2.3,5.3-4.1,2.7-7.8c0.9,0.7,1.8,1.7,2.9,0.1c0.8-1.1,1.8,0.7,2.8-0.1
		c0.1,0.2,0.1,0.3,0.2,0.5c-0.1,0.3-0.1,0.5-0.2,0.7C551.5,404.1,550.2,408.9,550,414z"/>
	<path class="st48" d="M550,301.8c-2.8,0-5.7,0.2-8.5,0c-2.7-0.2-3.3,0.9-3,3.2c0.7,4.6,1.5,9.1,3.1,13.5c0.5,1.4,0.8,2.8,1.4,4.2
		c0.5,1,0.6,2.5,2.2,2.6c1.5,0.1,2-1,2.6-2.1c0.5,0.5,0.4,1,0,1.6c-0.3,0.3-0.6,0.8-0.9,0.9c-4.7,0.6-8.1,3.2-10.4,7.2
		c-0.9-0.4-0.6-1-0.6-1.5c0-9.3,0.1-18.6,0-27.8c0-1.8,0.5-2.5,2.3-2.4C542.1,301.4,546.1,300.9,550,301.8z"/>
	<path class="st49" d="M309.5,81.8c-1.3,0-2.5,0-3.8-0.1c2.1-0.8,4.4-0.8,6.6-0.9c8.3-0.6,16.4,0.7,24.6,2.2
		c8.6,1.6,17,3.9,25.5,6.3c1.3,0.4,2.7,0.9,3.6-0.4c1-1.5-0.4-2.7-1.3-3.6c-3.6-3.7-8.3-5.1-13.1-6.5c-4.6-1.3-9.2-2.3-14-2.7
		c-0.8-0.1-1.7,0-1.8-1.1c0-0.8,0.6-1.3,1.3-1.5c2.4-0.7,4.7-1.7,7.3-1.6c3.7,0,7.3,0,11,0c0.7,0,1.5,0.3,1.9-0.4
		c0.4-0.8-0.3-1.3-0.6-1.8c-4.3-6-10.6-8.4-17.6-9.8c-8.3-1.7-16.6-0.4-24.9,0c1.8-1.1,4-1.3,5.9-1.4c7.5-0.3,15.2-0.9,22.5,1.1
		c6.4,1.8,12.3,4.5,15.6,11c1.1,2.2,0.1,2.6-1.6,2.3c-4-0.6-7.9-0.4-11.9-0.1c-1.8,0.1-3.4,0.5-5.1,1c-0.5,0.2-1.4-0.1-1.2,0.9
		c0.1,0.6,0.7,0.7,1.3,0.7c3.3,0,6.6,0.8,9.7,1.7c5.8,1.6,11.7,3.1,16.1,7.7c1.2,1.2,1.5,2.5,1.3,4c-0.3,1.8-1.1,2.6-3.1,1.9
		c-5.3-2-10.7-3.2-16.2-4.3c-3.6-1.3-7.2-2.4-11-2.6c-0.3,0.3-0.7,0.3-1,0c-3.1-1-6.2-1.5-9.4-1.5c-0.2,0.2-0.3,0.2-0.5,0
		c-4.1-0.8-8.2-1.3-12.3-0.8C312.1,81.7,310.8,81.8,309.5,81.8z"/>
	<path class="st50" d="M35.5,373.4c1.3,4.3,3.4,8,6.7,11.2c1.4,1.4,2.8,2.9,3,5c0.3,3.3,1.8,6.3,2.8,9.4c-2.5-2.9-2.9-6.7-4-10.2
		c-0.3,0.1-0.5,0.1-0.5,0.2c-1.5,2.9-1.5,2.9-3.6,0.4c-2.6-3-4.4-6.4-6.3-9.8c-3.4-6.5-5.3-13.2-2.8-20.4c0.4-1.3,0.6-3,2.4-3.4
		c1,2.7,0.7,5.7,1,8.5C34.4,367.3,35,370.3,35.5,373.4z"/>
	<path class="st51" d="M197.8,66.2c0-0.2,0-0.3,0-0.5c3.5,0,6.8,1,10.2,1.7c5.8,1.2,11.6,1,17.6,1c-0.3-1-1.1-0.9-1.4-1.3
		c-0.7-0.8-2.4-0.8-2.2-2.2c0.2-1.1,1.6-1.2,2.6-1.5c7.2-2.1,14-5.3,21.2-7.3c10.2-2.9,20.5-3.6,30.7,0.5c3.9,1.6,8.1,1.7,12.2,2.3
		c1,0.2,2.7-0.1,2.8,1.2c0.1,1.1-1.3,2-2.5,2.4c-1.9,0.6-3.4,1.9-5.7,3.2c4.1,0.2,7.1-1.3,10.3-2c4.9-1.1,9.7-3.1,14.9-3.1
		c-1.7,1.3-3.9,1.3-5.9,1.7c-7.2,1.7-14.4,3.6-21.5,5.8c-1.2,0.4-2.4,0.5-4.1,0c4.5-2.6,8.7-5,13.4-7.7c-5.3-1.1-10.1-1.2-14.5-2.9
		c-9.2-3.5-18.5-3.3-27.9-1c-3.4,0.8-6.7,2.4-10,3.5c-4.1,1.4-8.3,2.6-12.4,3.9c-0.9,0.3-1.8,0.6-2.6,1.5c1.3,0.8,2.5,1.5,3.9,1.8
		c0.8,0.2,2,0.1,1.9,1.3c-0.2,1-1.4,0.8-2.2,0.9c-7.8,0.9-15.4-0.5-23-1.9C201.7,67.1,199.7,66.6,197.8,66.2z"/>
	<path class="st52" d="M173.8,137.1c0,0.4,0.2,0.9,0.1,1.3c-1.1,4.8,2,7.8,5,10.7c3.4,3.3,7.3,5.6,11.8,7.2
		c6.9,2.5,12.8-1.3,12.9-8.8c0.1-5.5-0.6-10.9-2.6-16.1c-0.3-0.9-0.9-1.7-0.6-2.8c3.4,6.7,4.4,13.8,3.9,21.2
		c-0.3,4-1.2,7.9-2.6,11.6c-0.7,1.9-1.4,2.7-3.5,1.3c-3.6-2.5-7.6-4.5-11.8-5.9c-5.2-1.7-9-5.1-11.8-9.7
		C172.7,144,172.9,140.5,173.8,137.1z"/>
	<path class="st53" d="M59.6,388.4c-2.5,0.5-2.7,0.9-1.2,2.8c4.1,5.2,10,6.8,16.1,8.1c1,0.2,1.5-0.7,2.3-1c-0.4,1.3-1.4,2.3-1.8,3.6
		c-0.5,1.5-1.8,2.4-3.7,2.1c-6.3-1-12.1-3.1-16.6-7.8c-1.1-1.2-1.5-2.2-0.5-3.6c1-1.3,1.9-2.7,2.9-4
		C57.8,387.9,58.6,387.2,59.6,388.4z"/>
	<path class="st54" d="M522.3,405.7c6.9-0.8,13.3-2.7,18-8.3c0.5-0.6,0.9-1.3,0.8-2.1c1.5,1.2,2.4,2.8,3.4,4.5
		c0.6,1,0.4,1.8-0.4,2.6c-4.8,5.1-10.9,7.5-17.8,8.1c-1.9,0.2-2.6-1.4-3.3-2.8C522.7,407,522.5,406.3,522.3,405.7z"/>
	<path class="st55" d="M174.3,251.8c0.7-0.2,1.3-0.4,2-0.7c4.2-1.8,7.8-1.2,11,2.3c1.5,1.6,3.6,2.7,5.4,4.1c1.2,2-0.6,1.7-1.5,1.8
		c-2.9,0.1-5.7,0.2-8.6,0c-1-0.1-2.1-0.1-3.1-0.1c-0.3,0-0.6,0-0.9-0.1c-2.1-0.5-3.7-1.9-4.7-3.8
		C173.3,254.1,172.8,252.8,174.3,251.8z"/>
	<path class="st56" d="M48,399c1.1,2.1,3.2,2.2,5.1,2.9c1.1,0.4,0.8-0.4,0.8-1c0.8,0.2,1.3,0.7,1.8,1.5c-1,0.6-2-0.1-3,0.3
		c-0.1,0.9,1.1,0.7,1.2,1.4c-0.9,1.1-1.9-0.1-2.9,0.1c-0.5,3,0,5.6,3,7c1.7,0.9,2.6,0.4,2.8-1.5c0.2-1.9,0.3-3.9-2.3-4.5
		c-0.4-0.1-0.9-0.5-0.6-1.2c1,0.2,2,0.4,3.1,0.5c1,0.2,1.5,0.8,1.5,1.8c-0.1,6.2-0.2,12.5-0.3,18.7c0,0.4,0.1,0.9-0.4,1.1
		c-0.7,0.2-0.9-0.4-1.2-0.8c-2.5-2.8-4.1-6-5.2-9.5c-1.2-3.9-2.2-7.9-2-12C49.3,402.1,48,400.7,48,399z"/>
	<path class="st57" d="M80.9,357.1c2.3,0.1,1.2-2.3,2.6-3.3c0,3.1,0,6,0,8.9c0,1.4-0.8,1.8-2,1.7c-4.8-0.2-9.6,0.3-14.4,0.7
		c-0.8,0.1-1.2-0.1-1.1-0.9c0.1-1.2-0.7-2.7,1.3-3.1c2.4-0.5,4.9-0.9,7.3-1.5c1.9-0.5,3.9-0.7,5.4-2.2
		C80.1,357.2,80.4,357.1,80.9,357.1z"/>
	<path class="st58" d="M349.6,47.4c-0.6-0.2-1.1-0.4-1.7-0.6c-0.4-0.2-0.8-0.5-0.6-1c0.1-0.5,0.7-0.5,1.1-0.5
		c2.9-0.3,5.7,0.3,8.5,0.6c4.5,0.6,8.4-1.5,9.6-5.8c0.5-1.6,0-3.2-1.2-4.5c-0.9-0.9-2-1.7-2.6-2.9c2.1,0.7,3.4,2.4,4.6,4
		c2.5,3.5,4.6,7.3,5.2,11.7c0.2,1.3,0.1,2.3-1.7,1.6c-5.3-2.1-11.1-2.4-16.6-3.6c-1.2-0.3-2.4-0.4-3.6-0.5
		C349.3,45.7,349,46.3,349.6,47.4z"/>
	<path class="st25" d="M242.1,83.9c6-1,12.1-1.6,18.2-1.5c1.8,0,3.6-0.5,5.3,0.4c-0.5,0.7-1.3,0.6-2.1,0.7c1,0.5,1.6,0,2.1-0.7
		c0.9,0,1.7,0,2.6,0c0.6,1.2,1.7,1,2.7,1c5.7,0,11.4,0,17.1,0c0.4,2-1.1,2-2.3,2c-2.6,0.1-5.1,0-7.7,0.1c-0.7,0-1.4-0.1-1.9,0.4
		c-4.5,0.2-8.9-0.5-13.3-1.2c-3-0.5-6.1,0.1-9.2,0.2c0.5-1.2,0.7-2.1-1.1-1.8C249,84.2,245.6,83.8,242.1,83.9z"/>
	<path class="st20" d="M523.3,336.9c0.2,0,0.4,0,0.5,0c4.6,2.6,4.7,2.5,4.7-3c0-13.1,0-26.2,0-39.3c0-1.8-0.2-2.6-2.4-2.7
		c-18.7-0.7-37.5-0.3-56.2-0.4c-1.4,0-1.4,0-1.9,0.9c-0.1,0.3-0.3,0.3-0.5,0.1c-0.5-0.2-1-0.5-0.9-1.1c0.1-0.6,0.8-0.5,1.3-0.5
		c3,0,6.1,0,9.1,0c16.4,0.1,32.8,0.2,49.2,0.2c2.3,0,3.1,0.5,3.1,3c-0.2,13.7-0.1,27.4-0.2,41.1c0,1.4,1,3.2-1.2,4
		C525.7,340.1,524.4,338.7,523.3,336.9z"/>
	<path class="st59" d="M174.3,251.8c-0.7,2.4,0.3,4.5,2.8,6.1c0.4,0.3,1,0.2,1.3,0.7c-0.6,0.5-1.3,0.5-2,0.5c-3.6,0-7.3,0-10.9,0.2
		c-1,0.1-2.4,0.4-2.7-1.2C166.5,255.6,170,253,174.3,251.8z"/>
	<path class="st60" d="M444.6,277.4c-0.3,0-0.7,0-1,0c-1.4-1.2-2.7-2.3,0.5-2.6c1.1-0.1,1-1,1.1-1.7c0.3-2.5-1.2-4.4-2.6-6.1
		c5.2,2.5,9.4,6.1,12.2,11.3c-3-0.7-5.7-2-8.7-2.3C445.1,275.9,443.5,275.4,444.6,277.4z"/>
	<path class="st61" d="M162.9,258.1c0.8,1.1,2,0.9,3.1,0.9c4.2-0.1,8.3-0.2,12.5-0.3c0,0,0,0,0,0c4.7,0.5,9.3,0.1,14,0.2
		c0.7,0,1.1-0.5,1.6-0.8c3,1.7,6.1,3.5,9.2,5.1c0.8,0.4,1.5,0.8,1.8,1.7c-2.9-0.9-5.1-3-7.8-4.2c-2.9-0.8-5.7,0.4-8.6,0.5
		c-2.5,0.1-5,1.4-7.5,0.6c0.2-0.5,1.1-0.7,0.9-1.4c-0.3-0.9-1.1-0.6-1.8-0.6c-5.4,0-10.9,0-16.3,0c-0.7,0-1.5,0.1-1.8-0.7
		C162,258.5,162.5,258.2,162.9,258.1z"/>
	<path class="st62" d="M62.6,369.2c-1.8-0.4-3.1-1.6-4.6-2.6c0.3-0.3,0.4-0.4,0.5-0.5c1-0.4,2.1,1.4,2.7,0.2c0.5-1-0.6-2-1.2-2.9
		c-0.5-0.9-1-1.8-2.1-2.1c-4.3-0.5-8.5-0.7-12.6-2.2c-1.7-0.6-2.7-2.4-4.6-2.6l0,0c-1.4-0.3-2.9-0.5-4.3-1c-0.1-0.3-0.1-0.5,0.1-0.7
		c0.5,0,1,0,1.6,0c-1.6-1.6-4.1-1.2-5.4-3c2.8,0.4,5.1,1.9,7.6,2.9c1.7,0.7,2.4,0.5,2.4-1.6c0-4.4,0.7-8.6,4-11.9
		c0.1,0.9-0.5,1.6-1,2.3c-2.8,3.9-2.1,8.4-2.1,12.8c0,1.2,1.2,1.3,2,1.7c3.4,1.3,7.1,1.3,10.7,1.9c3.4,0.6,5.8,3.5,5.4,6.9
		C61.9,368.1,62.5,368.5,62.6,369.2z"/>
	<path class="st63" d="M361.7,141.2c-0.4-0.3-0.8-0.6-1.2-1c0.9-0.8,1.8-0.3,2.7-0.1c2.1,0.5,4.1,0.1,6-0.8c3.1-1.5,3.6-3.2,1.9-6.2
		c-0.3-0.6-0.8-1.2-0.1-1.9c1.7,1,2.5,2.8,3.8,4.2c0.5,0.6,0.5,1.2,0.1,1.9c-1.3,2.4-2.6,4.9-3.9,7.3c-0.4,0.7-1,0.6-1.6,0.6
		C367.2,143.3,364.7,141.9,361.7,141.2z"/>
	<path class="st64" d="M52.7,320.7c3.4-1.1,3.8-4.4,4.6-7.2c2.1-7.2-2.9-11.3-7.5-15.4c-0.7-0.6-1.4-0.4-2.2-0.2
		c-1.3,0.3-2.5,0.5-3.8,0.8c3.9-2.4,5.2-1.9,8.5,0.7c4.9,3.9,7.2,8.6,6.2,14.8c-0.3,2.1-0.1,4.3,0,6.5c0,1.3-0.6,1.7-1.8,1.2
		C55.3,321.5,54,321.1,52.7,320.7z"/>
	<path class="st65" d="M547.8,324.8c0-0.5,0-1,0-1.6c0.3-1.3,1.4-1.9,2.3-2.6c0.4-0.3,1-0.9,1.5-0.2c0.1,0.2-0.4,0.9-0.6,1.3
		c-0.5,3-0.5,3,3.1,4.7c1,0.4,2,0.9,3.5,1.6c-4.4,0.6-8.4-1.1-12,0.9c-1.4,1.5-3.1,2.8-4.6,4.2c-0.3,0.6-0.6,1.2-0.8,1.8
		c-0.6,1.8,0,2.8,2,2.8c2.3,0,4.6,0,6.9,0c0.7,0,1.4-0.1,1.8,0.6c-3,0-6.1,0-9.1,0c-3,0-3.6-1-2.5-3.9c1.8-4.6,5.4-7.1,10.3-7.2
		c0.7,0,1.4,0,2.3,0c-1.2-1.1-3.4-0.8-3.3-3C548.8,324.1,548.3,324.8,547.8,324.8z"/>
	<path class="st66" d="M194.7,175.7c0.8-1.4,1.7-1.2,2.6-0.2c1.2,1.2,2,0.7,2.2-0.7c0.4-2.4,1.2-4.9-1.7-6.5
		c-0.5-0.3-0.8-0.9-1.1-1.4c4.5,2.1,5.1,4.1,3.2,10.5c-0.7,2.3-2.5,3.6-4.9,4.1c-0.5,0.1-1.3,0.3-1.7-0.3c-0.3-0.6,0.2-1.2,0.5-1.6
		c0.4-0.6,1-1,1.4-1.6C195.8,177,196.2,176,194.7,175.7z"/>
	<path class="st67" d="M222.9,340.5c0,6.3-0.1,12.5-0.1,18.8c-1.1-2.2-0.1-4.6-0.6-6.9c0-6.7-0.1-13.3-0.1-20
		c0-12.6,0.1-25.1,0.1-37.7c1.2,0.7,0.6,1.9,0.6,2.8C222.9,311.8,222.9,326.1,222.9,340.5z"/>
	<path class="st68" d="M202.5,196c0,0.2,0,0.4,0.1,0.6c-0.7,2.4-1.8,4.6-2.9,6.8c-0.3,0.7-1.2,1.4,0,2.2c1.1,0.6,1.5-0.2,2.2-0.7
		c0.6-0.5,1.2-1,1.7-1.5c-1.9,3.2-4.3,6-6.7,8.7c-0.5,0.5-1.3,1-2.1,0.3c-0.8-0.7,0.1-1.2,0.4-1.7c2.5-4.1,4.1-8.7,6.1-13
		C201.6,197,201.8,196.3,202.5,196z"/>
	<path class="st69" d="M354.4,129.3c-3.8,1.8-3.8,1.8-4.5-2.3c-0.3-1.9-0.6-3.8-1-5.6c-0.3-1.2,0.3-1.6,1.3-1.8
		c1.3-0.3,1.2,0.6,1.2,1.4c-0.2,2.7,0.9,4.7,2.9,6.3c0.5,0.3,1.3,0.1,1.3,0.9C355.6,129,354.7,128.8,354.4,129.3z"/>
	<path class="st26" d="M181.1,261.8c3.8-0.1,7.5-0.9,11.2-1.4c1.6-0.2,3.4-0.9,4.9,0.3c-5.5,0-10.9,1.3-16.4,2.1
		c-8,1.2-16.1,2-24,3.7c-1.8,0.4-3.6,1.3-5.6,0.9c2.8-1.5,6-1.5,8.9-2.6c5.7-1.4,11.5-1.9,17.3-2.6
		C178.8,262.5,179.9,262.1,181.1,261.8z"/>
	<path class="st70" d="M20,310.8c-0.6,0-1.2-0.1-1.7-0.1c1.5-1,3.1-1.3,4.9-1.4c5.3-0.3,10.4-1,15.5-3c-0.7-0.9-1.9,0.2-2.2-0.7
		c-0.4-1,0.5-1.6,1.1-2.2c0.8-0.9,1.3-2.3,2.8-2.5c-0.6,1.4-1.9,2.6,0.1,4.3c1,0.9-0.6,1.5-1.4,1.8c-3,1.1-6.1,1.9-9.2,2.3
		c-0.5,0.1-1,0-1.4,0.4c-1.1,1-2.4,0.2-3.6,0.6C23.1,310.2,21.5,310.5,20,310.8z"/>
	<path class="st71" d="M533.8,376.5c-2,1.9-3.5,4.1-3.6,7c0,1-0.2,1.9,1.5,1.4c1.5-0.4,3.1-0.4,4.2,1c-1.6-0.1-3.1-1-4.8,0
		c-1.3,0.8-2.7,1.3-4.6,2.2C527.4,382.8,529.4,378.9,533.8,376.5z"/>
	<path class="st72" d="M363.2,118.8c-0.1-0.3-0.1-0.7-0.2-1c-0.4-0.8-1.9-1.2-1.5-2.1c0.5-0.9,1.7-1.7,2.8-2
		c1.8-0.5,2.1,1.2,2.7,2.4c0.7,3.8,0.1,4.8-2.8,4.9C363.2,120.5,364.1,119.3,363.2,118.8z"/>
	<path class="st73" d="M364.1,121c2.8-0.6,2.9-2.6,2.8-4.9c0.2,0,0.3,0,0.5,0.1c0.3,2,1,4,0.9,6.1c-0.1,1.9-3,4.1-4.7,3.4
		c-0.7-0.3-0.4-0.8-0.2-1.3C363.9,123.4,364.2,122.2,364.1,121z"/>
	<path class="st9" d="M393.4,337.4c-0.2,0-0.4,0-0.5,0c-0.1-9.2-0.2-18.3-0.3-27.5c0-1.8,1.1-1.9,2.4-1.8c0.1,0.1,0.2,0.3,0.1,0.4
		c0,0.1-0.1,0.2-0.1,0.2c-1.2,0-2.1,0.3-1.9,1.7c0.8,5.8,0.2,11.7,0.4,17.6C394.7,331.1,394.8,334.2,393.4,337.4z"/>
	<path class="st74" d="M580.3,314.3c-0.7,0-1.4,0.1-2.1,0.1c-6-0.6-12.2-0.9-17.7-3.8c0.4-1.6,1.9-0.4,2.5-1.4
		c-0.8-1.2-1.7-2.4-2.5-3.7c2.4,0.5,3.6,2.6,3.9,4.4c0.3,1.8,1.3,1.9,2.3,2.1c3.1,0.6,6.3,1.3,9.5,1.3
		C577.5,313.4,579,313.5,580.3,314.3z"/>
	<path class="st75" d="M54.8,324.3c-3.6-1.7-7.4-0.8-11.6-0.8c1.3-1.3,2.6-1.4,3.8-1.7c3-0.9,3.4-1.7,1.9-4.5
		c-0.2-0.4-0.5-0.8-0.6-1.5c1.8,0.6,3.2,1.6,3.4,3.8c-1.4,0.2-1.2,1.5-1.2,2.3c-0.1,1.1,1.1,0.8,1.8,0.9
		C53.3,323,54.4,323.2,54.8,324.3z"/>
	<path class="st62" d="M32.9,355.6c-4.3,6.3-3.4,12.9-1.1,19.6c0.5,1.5,1.4,2.8,1.6,4.4c-2.7-3-3.5-6.9-4.1-10.7
		c-0.7-4.1-0.2-8.3,1.8-12.1c1.7-3.2,1.9-3.3,5.4-1.9c-0.1,0.1-0.1,0.2-0.2,0.3C35.3,355.7,34,355,32.9,355.6z"/>
	<path class="st66" d="M186.3,170.5c2.1,2.9,4.4,5.3,8.4,5.2c-0.3,0.3-0.6,0.6-1,0.8c-4.2,2.7-4.4,2.6-5.9-2
		C187.3,173.1,185.9,172.1,186.3,170.5z"/>
	<path class="st76" d="M556.9,362.5c-0.5,0.3-1.1,0.6-1.6,0.9c-3.6,0.9-7.3,1.4-11,1.5c-1.5,0-2.7,0.5-3.6,1.7
		c-0.3,0.2-0.5,0.6-0.9,0.6c-0.1-0.1-0.2-0.1-0.3-0.2c-0.3-0.1-0.6-0.3-1-0.4c-0.2-1,0.8-1.3,1-2.1c5.2-0.1,10.3-0.6,15.3-1.9
		C555.5,362.4,556.2,362.3,556.9,362.5z"/>
	<path class="st44" d="M77.8,347.8c0.4-2.5-1-3.3-3.2-3.6c-1.2-0.1-2.4-0.1-3.3-1.4c1-1.1,2.4-0.7,3.5-0.9c0.8-0.1,2,0.5,2.2-0.7
		c0.1-0.9-1.2-0.7-1.8-1c-1-0.5-2.3,0-3.1-0.9c1.6-0.3,3,0.4,4.6,0.6c0.8,0.1,1.5,0.6,1.4,1.5c-0.1,1-0.9,1.1-1.7,1.1
		c-0.8,0-1.6,0.1-2.8,0.2C78.9,345.1,78.9,345.1,77.8,347.8z"/>
	<path class="st67" d="M240.6,357.7c0.5-1.2,1.5-1.6,2.7-1.6c5.9,0,11.8,0,17.7,0c-0.7,0.9-1.7,0.5-2.6,0.6
		c-4.8,0.1-9.6,0.2-14.5,0.4c-0.9,0-1.9-0.1-2.7,0.6C241,357.7,240.8,357.7,240.6,357.7z"/>
	<path class="st77" d="M357.7,122.8c-0.2,1.2-1,1.9-2.3,1.8c-1.2-0.1-1.9-0.8-1.7-2.1c0.1-1.3,0.9-2.1,2.2-2
		C357,120.7,357.6,121.6,357.7,122.8z"/>
	<path class="st25" d="M250.5,85.4c-3.4,0.7-6.9,1.7-10.4,1.5C243.4,85.5,246.7,83.8,250.5,85.4z"/>
	<path class="st61" d="M177.5,262.3c-5.8,0.9-11.5,1.7-17.3,2.6c3.1-1.6,6.6-1.6,9.9-2C172.6,262.5,175,261.8,177.5,262.3z"/>
	<path class="st78" d="M395,308.7c0-0.2,0-0.4,0-0.6c5.1-1.2,10.1-2.4,15.2-3.6c-3.7,2.4-8.1,2.5-12.1,3.6
		C397,308.4,396,308.5,395,308.7z"/>
	<path class="st79" d="M539.5,364.5c0.9,1.3-0.7,1.4-1,2.1c-0.2,0.2-0.4,0.3-0.5,0.5c-0.4,0.6-0.8,1.5-1.7,1.2
		c-1-0.3-0.5-1.3-0.6-2.1c0-0.6-0.3-1.2,0.3-1.7C537.2,364.5,538.3,364.5,539.5,364.5z"/>
	<path class="st76" d="M539.5,372.8c-1.4,0.7-2.7,1.5-4.1,2.2c1.5-1.4,2.3-3,2.3-5.2c0-1,0.7-2.1,1.7-2.8c0.1,0.1,0.2,0.2,0.3,0.2
		c0.4,0.8-0.1,1.5-0.4,2.2c-0.2,0.6-0.5,1.1,0.4,1.4C541.8,371.7,540.2,372.2,539.5,372.8z"/>
	<path class="st59" d="M194.1,258.1c-0.3,0.3-0.6,0.9-0.8,0.9c-4.9,0-9.9,0.7-14.8-0.3c4.2,0,8.4,0,12.6-0.1c0.6,0,2,0.7,1.6-1
		C193.1,257.7,193.6,257.9,194.1,258.1z"/>
	<path class="st12" d="M332.9,344.3c0.3-0.7-0.6-1.3,0.1-2.2c1.1,2.1,2.1,4.1,3.4,6.6c-1.4-0.8-1.3-2.2-2.5-2.4
		C333.3,345.7,333,345,332.9,344.3z"/>
	<path class="st80" d="M326.6,332.7c0.1-0.2,0.1-0.4,0.2-0.6c1.1,2.1,3,3.7,3,6.3C328.4,336.7,327.5,334.7,326.6,332.7z"/>
	<path class="st76" d="M536,364.5c0,0.5-0.1,1,0,1.5c0.1,0.6-0.4,1.5,0.3,1.9c0.7,0.4,1-0.7,1.7-0.9c-0.1,1.2-0.7,2.1-1.9,2
		c-1.2-0.2-0.7-1.4-0.7-2.2C535.4,366.1,535,365.1,536,364.5z"/>
	<path class="st18" d="M467.6,292.5c0.2,0,0.4-0.1,0.5-0.1c1.3,1.2,2.7,2.3,3.6,3.8c-0.2,0-0.4,0-0.6,0
		C469.9,295,468.8,293.7,467.6,292.5z"/>
	<path class="st58" d="M349.1,50.5c0.8-0.9,2-1.8,0.5-3.1c1,0.1,2,0.6,1.9,1.6C351.3,50.1,350.1,50.4,349.1,50.5z"/>
	<path class="st81" d="M354.4,129.3c1-0.8,0.9-1.4-0.1-2.1c0.9-0.1,1.9-0.2,2,0.9C356.3,129.3,355.3,129.3,354.4,129.3z"/>
	<path class="st82" d="M290.7,96.9c-0.5,0.4-1.4,0.8-1.3,1.5c0.2,0.8,1.2,0.4,1.8,0.5c3.9,0.5,7.4,1.8,10.1,4.8
		c0.3,0.4,0.6,0.9,1.2,0.8c0.5-0.1,1.1-0.3,1,0.6c-0.1,0.7-0.4,1.3-0.8,1.9c-0.3,0.4-0.8,0.1-1.1-0.1c-0.5-0.4-1-0.7-1.5-1.1
		c-3.8-2-7.9-3-11.9-4.3c-1.2-0.4-2.2,0.2-2.9,1.2c-1.5,1.2-2.3,3.1-3.6,4.4c-1.4,1.5-1,2.2,0.8,2.9c5.8,2.3,11.6,4.8,17.4,7
		c1.7,0.7,2.2,1.5,2.1,3.3c-0.4,5.1-2.2,9.6-5.8,13.3c-1.6,1.7-3.3,2.6-5.5,2.3c-2.7-0.4-3.1,1.9-3.9,3.4c-0.6,1.2,1.6,1,1.7,2.7
		c-16-4.1-32.3-3.9-48.8-3.1c0.3-0.5,0.4-0.9,0.5-0.9c3.5-0.5,3.8-2.7,3.7-5.7c-0.3-5.9,1.4-11.5,4.4-16.6c1.8-3.2,1.8-3.2-1.4-5.1
		c-4.5-2.6-9.1-5.1-13.9-7.2c-0.7-0.3-1.4-0.7-2.5-1.2c4.4-2.3,8.8-3.4,13.4-3.9c8.5-0.9,16.5,0.6,24,5.2c2.9,1.8,6.1,2.9,9.2,4.3
		c1.3,0.6,2.2,0.4,2-1.1c-0.8-5.5,3.1-7.7,6.8-10.2c0.2-0.1,0.5-0.2,0.7-0.4c0.6-0.7,1.9-1.1,1.6-2.1c-0.3-1-1.5-0.5-2.3-0.6
		c-2.2-0.3-4.4-0.6-6.8-1c0.8-1.1,1.7-1,2.6-1c3-0.3,6-0.5,9.1,0c2.8,0.4,5-1,7.3-2.2l0,0c0.9,0,1.7-1,2.6-0.4
		c0.1,1-0.6,1.1-1.2,1.5c-0.6,0.4-1.7,0.6-1.5,1.5c0.2,1.1,1.3,0.9,2.1,1.1c1.5,0.2,3,0.6,4.3,1.4c-1.8,1.1-3.7,1.1-5.6,0.7
		c-1.5-0.3-3.1-0.5-4.6,0C292.9,95.4,291.7,96,290.7,96.9z"/>
	<path class="st83" d="M269.8,236.7c-5,2.8-9.9,5.8-14.3,9.4c-1.3,1.1-1.8,1-2-0.8c-0.3-3.5-0.7-7.1-1-10.6
		c-0.1-1.4-0.2-2.5-2.1-1.8c-1.4,0.5-1.6-0.4-1.5-1.5c0.4-7.8,3.5-14.6,8-20.9c0.8-1.1,2.2-1.3,3.5-1.6c11-2.9,22.4-4.2,33.7-5.4
		c12.9-1.3,25.8-2.1,38.7-2.8c2.2-0.1,3.8,0,3.4,2.8c-0.2,1.4,0.9,1.6,2,1.9c1.7,0.4,3.5,4.1,2.9,5.7c-0.3,1-1.2,0.8-2,1
		c-11.2,2.5-22.3,5.3-33.2,8.9c-7.7,2.6-15.1,5.6-22.6,8.8c-2.3,1-4.5,2.2-6.7,3.2l0,0C274.4,234.4,272,235.3,269.8,236.7z"/>
	<path class="st84" d="M344.8,144.4c4.1-0.8,7.6,1.3,11.3,2.8c3.6,1.5,7,10,5.3,13.7c-1.1,2.3-2.4,5.2-4.9,6.2
		c-3.9,1.6-7.7,3.8-12.1,3.3c-5.3-0.6-10.5-1.7-14.2-6.1c-3.6-4.2-3.2-12.5,0.5-15.2C334.7,146.3,339.3,143.7,344.8,144.4z"/>
	<path class="st30" d="M364.8,148.1c7.7,4,11.8,14,9.2,22.5c-2.1,6.8-3,7.5-9.9,7.7c-10,0.4-19.9-1.3-29.7-3.1
		c-0.3-0.1-0.6-0.3-0.9-0.5c3.7-0.2,7.1,1.5,10.8,1c9.3-1.1,17.1-4.7,22-13.1C369,158,368.3,152.5,364.8,148.1z"/>
	<path class="st85" d="M265.5,162.3c0.2,1.1-0.5,1.5-1.4,1.7c-7.7,2-15.5,3.9-23.2,6c-1.7,0.5-2.5,0-3.1-1.7c-0.9-2.7-2-5.4-3.1-8
		c-0.7-1.6-0.2-2.2,1.4-2.6c8.7-2.1,17.4-4.2,26-6.3c1.3-0.3,2-0.1,2.2,1.3C264.7,155.9,265.1,159.1,265.5,162.3z"/>
	<path class="st13" d="M316.7,175.6c-5.8,1.1-11.6,2.3-17.2,4.1c-1.8,0.6-3.2,1.7-4.6,2.8c-1,0.8-1.7,0.9-1.8-0.7
		c-0.4-6.2,0-12.3,3.3-17.9c1.5-2.5,3.4-4.7,6.1-5.8c3.3-1.4,6.2-3.3,8.9-5.7c-0.9,3.4-3.1,5.6-5.9,7.5c-1.7,1.2-3.5,2.2-4.5,4.2
		c-0.6,2.8-1.9,5.4-2.3,8.2c-0.3,2.2-0.1,2.6,2.1,2.1c5.6-1.3,11.1-0.6,16.7-0.7c0.5,0,1.1,0,1.3,0.6c0.2,0.6-0.4,0.9-0.9,1.1
		C317.5,175.5,317.1,175.4,316.7,175.6z"/>
	<path class="st86" d="M292.1,235.1c-0.4-0.3-2.4,0.1-0.9-1.1c9.2-7.4,19.1-13,31.5-11.8c0.8,0.1,1.6,0,2.2,1
		c-1.8,0.5-3.5,1-5.2,1.5c-6.3,3-12.9,5.3-19.4,7.8C297.8,233.5,294.9,234.2,292.1,235.1z"/>
	<path class="st87" d="M279.7,156.6c0.6-8.4,16.7-19.6,26.2-15.1C295.9,144.5,287.6,149.8,279.7,156.6z"/>
	<path class="st88" d="M316.7,175.6c0.3-0.8,1.6-0.2,1.8-1.3c-6.3-0.6-12.6-0.2-18.7,1.2c-2.2,0.5-2.5-0.2-2.1-2
		c0.7-3.3,1.2-6.6,3.3-9.4c0.3,2.9,2.7,4,4.7,5.4c3.2,2.3,6.6,4.7,11.1,3.8c-0.8-1.3-2.7-1-3.1-2.5c3.5,1.7,7,3.5,10.5,5.2
		C321.7,175.2,319.2,175.4,316.7,175.6z"/>
	<path class="st89" d="M344.7,90.3c-1.4,2.1-2.4,3.6-3.4,5.1c-1.1,1.6-1.9,3.2,0.9,4.5c-4.4-0.2-8.3,1.1-12.2,2.1
		c-1.4,0.3-2.7,0.6-3.9,1.4c-0.7,0.4-1.6,0.8-1.9-0.4c-0.2-0.7-0.5-1.3,0.8-2.1c3.8-2.4,8.5-2.9,11.8-6.2
		C338.7,92.7,341.3,91.3,344.7,90.3z"/>
	<path class="st90" d="M308.9,122c0.3-1.2,0.4-2.4,2.1-2.5c1.6-0.1,2-1.5,2.3-2.8c0.9-4.3,0.3-8.6-0.5-12.9
		c-0.1-0.8-0.5-1.6-0.1-2.7c1.5,1.1,1.1,2.9,1.9,4.2c1.2,3.4,1.7,6.9,2.3,10.5c0.8,4.6-1.9,8.1-6.2,8.3
		C309.3,124.1,308.2,123.8,308.9,122z"/>
	<path class="st91" d="M292.1,235.1c7.6-3,15.2-5.9,22.8-8.8c1.6-0.6,3.2-1.4,4.9-1.6c-6.4,4.4-13,8.4-21,8.9
		C296.5,233.6,294.6,235.5,292.1,235.1z"/>
	<path class="st92" d="M320.9,108.6c0.9,0.5,0.8,1.5,1,2.2c0.9,2.9,2.4,5.3,5.1,6.6c2.2,1.1,1.1,2.3,0.4,3.6
		c-0.9,1.7-1.9,0.7-2.8,0.1C321.7,119,319.8,112.4,320.9,108.6z"/>
	<path class="st93" d="M293.3,94.4c1.5-1.1,3.2-0.7,4.7-0.4c1.9,0.4,3.8,0.3,5.9,0.3c-1.6-1-3.3-0.8-4.8-1.4c-0.7-0.3-1.7,0-1.9-1
		c-0.2-1,0.7-1.4,1.5-1.9c0.5-0.3,1-0.6,2.2-1.2c-1.4,0.1-2.2,0.1-2.9,0.2c2.8-1.7,4.8-2.1,7.2-1.4c-2.2,1.7-5,2-7.3,4.1
		c2.7,0.6,5,1.1,7.4,1.6c1,0.5,2,0.1,3.1,0.3c0.5,0.1,0.8,0.3,0.8,0.8c0,0.4-0.3,0.7-0.7,0.7C303.4,94.7,298.3,96.3,293.3,94.4z"/>
	<path class="st93" d="M297.9,89c-2.5,2.1-5.2,3.2-8.6,2.4c-3.2-0.7-6.4,0.2-9.6,0.5c2.2,0.3,4.4,0.9,6.7,0.9c0.9,0,2.1-0.5,2.5,0.7
		c0.4,1.2-0.9,1.5-1.5,2.2c-0.4,0.5-0.9,0.8-1.6,0.7c0.4-0.9,1.6-1.1,1.9-2.3c-3.9-0.9-7.8-1.2-12.4-1.3c2.2-1.6,4.1-1.6,5.9-1.9
		c1.8-0.2,3.6-0.3,5.4-0.2C290.6,91,294.4,90.8,297.9,89z"/>
	<path class="st94" d="M308.9,122c0.7,2,3.6,2.2,5.5,0.2c1.9-2.1,2.3-4.6,1.9-7.3c-0.5-3.2-1.1-6.5-1.7-9.7c1.2,1.5,1.4,3.3,1.6,5.1
		c0.5,3.4,1.7,6.7,1.5,10.2c0,0.8,0.1,1.8-0.7,2.1c-2.4,1-4.9,1.7-7.5,1.7C308.3,124.4,307.9,123.2,308.9,122z"/>
	<path class="st95" d="M285.3,102.6c0.3-1,1-1.7,2.1-1.6c4.5,0.7,9,1.7,12.7,4.7c-1.5-0.3-3-0.6-4.6-0.5c-2.2,0.2-4.2-0.8-5.7-2.2
		C288.3,101.5,287,101.4,285.3,102.6z"/>
	<path class="st96" d="M293.3,94.4c5.1,0.1,10.2,1.2,15.9,0.2c-1.5-1.1-3-0.4-4-1.3c0.9,0,1.9,0,2.8,0c0.8,0,2.1-0.3,2.1,0.9
		c0.1,1.1-1.2,1.1-2,1.2c-3.8,0.2-7.6,0.5-11.4,0.4c-2.2,0-4.2,0.1-6.2,1.2C291.1,95.6,292.6,95.4,293.3,94.4z"/>
	<path class="st97" d="M269.8,236.7c1.9-1.8,4.3-2.8,6.8-3.6C274.6,234.9,272.2,235.8,269.8,236.7z"/>
	<path class="st97" d="M276.6,233.1c2-1.5,4.2-2.7,6.7-3.2C281.3,231.4,279.1,232.6,276.6,233.1z"/>
	<path class="st84" d="M360.1,144.9c0.3,0.2,0.6,0.4,1,0.5c0.3,0.7,0.2,1.3-0.7,0.9c-1.1-0.5-2.1-1.3-3.1-2.3
		C358.3,144.3,359.2,144.6,360.1,144.9z"/>
	<path class="st98" d="M337.5,283.5c2.8,0.7,5,2.7,8.4,3.3c-2-3.5-3.2-6.9-3.7-10.6c-0.1-0.7-0.8-1.7,0-2.1c0.8-0.5,1.3,0.5,1.8,1
		c3.2,3,6.6,5.6,10.8,6.9c0.7,0.2,1.3,0.4,2,0.5c0.5,0.1,1.1,0.2,1.4-0.4c0.3-0.6-0.3-0.9-0.6-1.3c-1.9-1.9-3.1-4-3.1-6.9
		c4.1,7.2,11.3,8,18.5,9.1c-1.1,1.7-2.7,1.7-4,2.3c-5.7,2.3-11.6,2.7-17.4,0.4c-0.4-0.1-0.7-0.6-1.1-0.2c-0.5,0.5-0.1,0.9,0.2,1.4
		c0.1,0.1,0.2,0.3,0.3,0.4c0.4,1.3,2.3,2.5,1.5,3.6c-0.9,1.3-2.8,0.1-4.1-0.2C344,289.5,340,287.6,337.5,283.5z"/>
	<path class="st99" d="M289.2,33.7c2-3.3,5-5.3,8.5-6.6c1.6-0.6,3.3-0.9,5-1.4c1.8-0.5,1.8,0.5,1.3,1.7c-0.5,1.1-1.2,2.1-1.9,3.1
		c-0.2,0.3-0.4,0.7-0.1,0.9c0.2,0.2,0.7,0.2,0.9,0.1c6.7-3.1,13.2-1.8,19.6,0.7c0.7,0.3,1.8,0.3,1.8,1.2c-0.1,1.2-1.3,0.8-2.1,0.9
		c-4.5,0.5-8.8,1.7-12.4,4.7c-1.5,1.2-2,3.2-4,4.7c0.2-3,1.2-5.1,2.9-6.9c0.6-0.6,2-1.2,1.3-2.2c-0.5-0.8-1.8-0.1-2.7,0.1
		c-4.4,1.2-8,3.5-11.2,6.8c-0.6,0.7-1.2,1.9-2.3,1.4c-1.3-0.5-0.2-1.7-0.1-2.5c0.4-2.7,1.4-5.2,2.4-7.6c0.2-0.6,0.9-1.3,0.2-1.9
		c-0.6-0.6-1.3,0.1-1.9,0.2C292.7,31.7,291.1,33.1,289.2,33.7z"/>
	<path class="st100" d="M229.6,46.8c-1,0.3-1.8,1.7-3.1,0.6c-0.5-0.4-1-0.8-1.6-0.5c-0.7,0.4-1.1,1.8-2,1c-1.3-1.1-3.1-1.6-4.3-2.8
		c-0.7-0.7-0.1-1.4,0.7-1.9c0.2-0.1,0.3-0.1,0.5-0.2c2-1.3,4.8,0.1,6.4-1.3c1.5-1.3,1.6-3.9,3-5.6c1.6-2,3.6-3.2,5.6-4.5
		c0.5-0.4,1.1-1.2,1.8-0.7c0.8,0.5-0.2,1.2-0.1,1.9c-1,3.2-1.8,6.5-1.7,9.9c0.1,1.4-0.9,1.9-2,0.5l0,0c-0.4-0.4-0.4-1.3-1.1-1.2
		c-0.7,0.1-0.8,0.8-0.9,1.4C230.5,44.6,231.1,46.1,229.6,46.8z"/>
	<path class="st101" d="M232.8,43.2c1.9,0.9,1.6-0.5,1.5-1.5c-0.1-3.2,0.6-6.2,2.1-8.9c0.2,0.5,0.6,1,0.3,1.5c-2,3-1.1,6.4-1.3,9.6
		c0,0.7,0.4,1.8-0.4,2.1c-1.1,0.4-1.1-1-1.7-1.6C232.9,44.1,232.9,43.6,232.8,43.2z"/>
	<path class="st23" d="M219.2,43.2c-0.7,1.1-0.6,1.9,0.7,2.5c0.9,0.4,1.8,1,2.6,1.6c0.5,0.3,1,0.8,1.4-0.1c1.2-2.8,1.8-0.6,2.6,0.3
		c-0.3,0-0.9,0-1,0.1c-1.3,2.9-2.4,1.4-3.8,0.1c-0.8-0.7-1.9-1.2-2.9-1.7c-0.7-0.4-1.6-0.7-1.5-1.6
		C217.5,43.4,218.4,43.3,219.2,43.2z"/>
	<path class="st101" d="M229.6,46.8c0.9-1.1,0.3-2.5,0.7-3.7c0.3-0.9,0.1-2.4,1.5-2.3c1.2,0.1,0.9,1.4,0.9,2.3
		c-1.4-0.8-1.6,0-1.6,1.2C231.2,45.6,231.3,46.8,229.6,46.8z"/>
	<path class="st102" d="M252.4,66.1c3.2-0.2,6,1,8.7,2.7c0.6,0.4,1.5,0.9,1.1,1.8c-0.3,0.7-1.3,0.4-1.9,0.4
		c-5.2-0.7-10.4-0.5-15.5,0.4c-0.3,0.1-0.7,0.1-1,0.2c-1,0.2-2.5,1.1-3-0.1c-0.4-1,1.1-1.9,2-2.5C245.6,66.9,248.8,65.9,252.4,66.1z
		"/>
	<path class="st103" d="M308.8,68.1c5.6-2.4,11.4-3.1,17.3-1.2c0.5,0.2,1.3,0.3,1.2,1.1c-0.1,0.5-0.6,0.6-1,0.7
		c-5.6,1.3-11,3.4-16.8,3.8c-0.1-0.1-0.1-0.2-0.2-0.3c1.4-1.5,3.4-1.5,5.2-1.9c3.2-0.8,6.4-1.6,9.2-2.3c-4.6-1.4-9.4,0.3-14.3,0.7
		C309.2,68.5,309,68.4,308.8,68.1z"/>
	<path class="st103" d="M309.5,72.5c-3.1,1.7-6.6,1.2-9.8,2c-0.4,0.1-0.9,0-1.1-0.5c-0.3-0.7,0.1-1.2,0.6-1.6
		c2.9-1.9,5.9-3.8,9.6-4.3c0.1,0.1,0.1,0.2,0.2,0.2c-1.1,1.8-3.2,1.8-4.8,2.8c-0.9,0.6-2,1-3.1,1.6c1.9,0.2,3.5-0.4,5.2-0.7
		c1-0.2,2-0.5,3,0.2C309.4,72.4,309.5,72.4,309.5,72.5z"/>
	<path class="st104" d="M201,336.3c0,8.7-0.1,17.3-0.1,26c-0.3,1-1.2,0.9-1.9,0.9c-4.2-0.1-8.3-0.1-12.5,0c-2.1,0-3.2-0.8-3.2-3
		c0-21.9,0-43.9,0-65.8c0-1-0.4-2.1,0.5-3c1,1.1,0.8,2.4,0.8,3.7c0,6.6,0,13.1,0,19.7c0,3.3,0,3.2,3.1,3.5c1.7,0.2,3.4,0.6,5.2,0.4
		c4.7-0.6,6.3,2.7,7.7,7c0.3,1,0.3,2.2,0.6,3.3C201.1,331.5,201.4,333.9,201,336.3z"/>
	<path class="st105" d="M200.9,329c-0.3-0.5-0.9-1.1-0.9-1.5c0.5-2.9-2.1-4.4-2.8-6.8c-0.3-1-1.2-1.2-2.1-1.1
		c-3.5,0.5-6.9-0.9-10.3-0.4c-1.6,0.3-1-1.3-1-2c0-8.6,0-17.2,0-25.8c0,0,0-0.1,0-0.1c5.7-0.3,11.5-0.3,17.2,0
		c1,2.2,0.1,4.5,0.5,6.7c-0.4,7.4,0,14.9-0.2,22.4C201.1,323.3,201.5,326.2,200.9,329z"/>
	<path class="st106" d="M144,295.1c1,0.8,0.5,2,0.5,2.9c0,14.3,0,28.6,0,43c0,0.9,0,1.8,0.3,2.8c1-1,1.3-2.1,1.3-3.4
		c0-1.5,0.6-2.3,2.3-1.7c1.9,0.6,3.7,0,5.6-0.5c3.3-1,4.3-0.2,4.7,3.1c0.2,1.3,0.1,3.6,1.4,3.5c2-0.2,0.9-2.2,0.6-3.4
		c-0.5-2.3,1.2-4.1,1.1-6.2c-0.1-4.7,0-9.4,0-14.1c0-0.8-0.2-1.8,0.4-2.5c0.4,14.3-0.5,28.6-0.4,43c0,1.3-0.3,1.9-1.8,1.9
		c-4.9-0.1-9.7,0-14.5,0.8c-0.9,0.1-1.3-0.3-1.4-1.1c-0.1-0.9-0.1-1.7-0.1-2.6c0-20.7,0-41.4,0-62C144.1,297.4,144,296.3,144,295.1z
		"/>
	<path class="st107" d="M183.3,360.2c0.3,1.9,1.5,2.3,3.3,2.2c4.8-0.1,9.5-0.1,14.3-0.1c0.3,9.8-0.1,19.5-0.6,29.7
		c-1.1-1.9-1.2-3.6-1.4-5.3c-0.4-3.4-1.1-4-4.6-4.1c-3,0-5.9-0.2-8.3,2.1c-0.7,0.7-1.2,0.2-1.8-0.3c-0.4-0.5-0.5-1.1-0.5-1.7
		C184.1,375.3,182.8,367.8,183.3,360.2z"/>
	<path class="st107" d="M200.9,329c0-9.4,0.1-18.7,0.1-28.1c0-0.9-0.2-1.9,0.4-2.8c0,12.2,0,24.5,0,36.7c0,0.5,0,1-0.4,1.4
		C200.9,333.9,200.9,331.4,200.9,329z"/>
	<path class="st107" d="M200.9,291.4c-5.7,0-11.5,0-17.2,0c4-0.9,8.1-0.3,12.1-0.4C197.5,290.9,199.3,290.5,200.9,291.4z"/>
	<path class="st20" d="M471.8,336.7c0-13.5,0-27-0.1-40.6c0.6,0.6,0.4,1.5,0.4,2.2c0,12.8,0,25.7,0,38.5
		C472,337.1,471.9,337,471.8,336.7z"/>
	<path class="st18" d="M471.8,336.7c0.1,0.1,0.2,0.1,0.4,0.2c0,5,0,10.1,0,15.1c0,3.7,0,7.3,0,11c-0.4-0.4-0.5-0.9-0.5-1.4
		C471.8,353.2,471.8,345,471.8,336.7z"/>
	<path class="st104" d="M105,310.8c1,2.1,0.4,4.2,0.5,6.4c0.1,3.1,0,6.2,0,9.4c0,0.6-0.3,1.6,0.6,1.7c0.8,0.1,1.1-0.9,1.2-1.5
		c0.2-1.1,0.1-2.3,0.3-3.3c0.4-1.9,1-3.1,3.5-2.4c2.2,0.6,4.6,0.5,6.9-0.1c1.7-0.4,2.3,0.1,2.6,1.8c0.3,2.1,0.1,4.3,1.6,6.2
		c0-10.1,0-20.2,0-30.2c0.7,0.8,0.4,1.8,0.4,2.7c0,15.5,0.1,31.1-0.2,46.6c-0.1,5.3-0.2,10.6-0.4,15.9c-2.5,1.3-14.7,1.3-17.2,0
		C105,346.2,105,328.5,105,310.8z"/>
	<path class="st108" d="M105,363.9c5.7,0,11.4,0,17.2,0c0,11.1,0,22.2,0,33.3c0,1.9-0.2,3.4-2.5,1.5c-0.5-0.4-1.2-0.5-1.7,0
		c-1.7,1.5-3.7,1-5.7,1.2c-2.2,0.2-5.1-0.6-5.4,3.1c0,0.5-0.7,0.8-1.2,0.8c-0.9-0.1-0.6-0.9-0.6-1.5c0-4.2,0-8.3,0-12.5
		C104.9,381.3,104.9,372.6,105,363.9z"/>
	<path class="st67" d="M222.9,363.3c5.8-1.4,11.7-1.2,17.6-0.5c0,10,0,19.9,0,29.9c0,0.6,0.3,1.5-0.6,1.8c-0.8,0.3-1.2-0.4-1.6-1
		c-0.7-1.2-1.8-1.5-3.1-1.4c-2.4,0.1-4.9,0-7.3,0c-3,0-3.8,0.7-4.1,3.7c-0.1,0.9,0,1.9-1,2.8C222.9,386.7,222.9,375,222.9,363.3z"/>
	<path class="st109" d="M371.5,347.3c-1-0.8-1.2-1.9-1-3.1c0.5-3.1-0.7-5.9-1.2-8.9c-0.2-1.5-1.4-2-2.8-2.2c-4.8-0.5-8.7,0.8-11.4,5
		c-0.1,0.2-0.5,0.2-0.7,0.2c0-9.1,0-18.2-0.1-27.4c0-1.5-0.2-2.5,2.2-2c4,0.9,8.1,1.6,12.3,1.1c2.1-0.2,2.9,0.4,2.9,2.7
		C371.5,324.3,371.5,335.8,371.5,347.3z"/>
	<path class="st80" d="M449.8,298.7c0.7,0.6,0.4,1.5,0.4,2.2c0,20.6,0,41.3,0,61.9c-0.7,0.6-1.5,0.4-2.2,0.4
		c-4.2-0.1-8.5-0.1-12.7,0c-0.8,0-1.6,0.2-2.2-0.4c0-0.2,0-0.3,0-0.5c-0.6-3.3-0.1-6.7-0.3-10c0-1,0.2-2.1-0.2-3.1c0-5,0-10,0-15.1
		c0.6,0,1.1-0.2,1.3-0.7c1-4.5,5-4.3,8.2-4.9c2.2-0.4,4.7-0.8,6.5,1.5c0.6,0.7,1.1,0.2,1.1-0.6c0-0.6,0-1.2,0-1.8
		C449.8,318,449.8,308.4,449.8,298.7z"/>
	<path class="st80" d="M393.5,360.7c0-7.1,0-14.2,0-21.3c2.1,2.6,4.3,1.9,6.9,0.5c2.8-1.5,5.8-0.4,8.6,0.4c1.1,0.3,1.3,1.8,1.4,2.9
		c0.2,1.8,0.3,3.7,0.4,5.7c0-4.7-1.3-9.2,0.4-13.6c0-7.1,0-14.3,0-21.4c0.4-0.1,0.7,0,0.8,0.4c0.4,0.9,0.4,1.9,0.4,2.8
		c0,13.9,0,27.9,0,41.8c0,0.9,0.1,1.9-0.3,2.8c-0.5,1-1.5,1.1-2.4,1.1c-4.6,0-9.3-0.1-13.9,0C394.2,362.8,393.7,362.1,393.5,360.7z"
		/>
	<path class="st78" d="M411.2,335.3c0,4.8,0,9.7,0,14.5c-1.2-2.1-1.3-4.4-1.5-6.7c-0.2-1.8-0.7-2.7-2.7-2.6
		c-0.8,0.1-1.7-0.3-2.5-0.4c-1.7-0.2-3.4-0.4-4.8,1.2c-1.3,1.5-3.3,0.9-4.9,1c-1.4,0.1-0.3-2-1.3-2.8c0-0.7-0.1-1.4-0.1-2.1
		c0-3.1,0.1-6.3,0.1-9.4c0.8-0.4,1.1-1.1,1.3-1.8c0.5-2.4,2.2-3.8,4.5-3.3c1.9,0.5,3.5,0.2,5.3-0.4c3-0.9,3.9-0.4,4.5,2.5
		C409.8,328.4,410,332,411.2,335.3z"/>
	<path class="st110" d="M411.5,314c-0.1-0.1-0.2-0.1-0.3-0.2c0-2.1,0-4.2,0-6.2c0-1.4,0.6-2.1,2-2c2.4,0.6,4.9-0.1,7.3,0.4
		c3,0,5.9,0.1,8.9,0.1c1.8,0,2.6,0.4,2.8,2.4c0.6,6.7,0.2,13.4,0.3,20c-0.2,0-0.3,0-0.5,0c-0.7-0.8-0.7-1.7-0.7-2.7
		c0-5.1-0.8-10.2-0.6-15.3c0.1-2.8-0.3-3.1-3.2-3.1c-4,0-8,0-11.9,0c-1,0-2.1-0.1-2.8,0.9c-0.6,1-0.3,2.1-0.4,3.2
		C412.4,312.4,412.5,313.4,411.5,314z"/>
	<path class="st80" d="M420.6,305.9c-2.5-0.1-4.9,0.4-7.3-0.4C415.7,305.7,418.2,305.1,420.6,305.9z"/>
	<path class="st111" d="M188.4,145.4c0.1,0.2,0.3,0.4,0.4,0.6c0.3,0.3,0.6,0.7,0.9,1c0.7,0.7,1.5,1.3,2.5,0.8
		c1.2-0.5,0.8-1.6,0.8-2.5c-0.1-7.4-3.3-13.9-6.5-20.3c-2.2-4.4-5.3-8.3-8.1-12.4c-0.8-0.9-1.2-2.5-2.9-2.1
		c-1.9,0.5-2.5,2.2-2.7,4.4c-1.4-1.5-1.3-2.8-0.8-4.1c1.4-3.8,5-5.1,8.2-2.7c13.3,9.8,20.5,22.6,19.1,39.5c-0.3,4-1.1,4.8-5.1,5.5
		c-3.5,0.6-6.1-0.5-8-3.5c-1.1-2.6-1.5-5.3-1.3-8.1c0.1-0.7,0.1-1.6,0.9-1.7c1.1-0.2,0.3,1.1,0.9,1.5l0,0
		C187.1,142.7,187.8,144.1,188.4,145.4z"/>
	<path class="st112" d="M178.5,112.6c1.8,0.9,2.5,2.8,3.6,4.3c6.2,8.3,10.6,17.4,11.3,28c0.1,1.2,0.8,2.8-1,3.3
		c-1.8,0.5-3-0.4-3.5-2.2c0.4,0.2,0.8,0.4,1.1,0.7c0.6,0.6,1.2,1.1,2.1,0.7c1-0.4,0.6-1.3,0.6-2c-0.1-4.5-0.7-8.6-4-12.4
		c-4.3-4.8-7.1-10.7-8.6-17.1C179.7,114.7,179,113.7,178.5,112.6z"/>
	<path class="st113" d="M186.8,141.2c-0.3-0.4-0.6-0.7-1-1.1c-1.3,3.3,0.2,6.3,0.5,9.5c-2.4-3.2-1.6-6.8-1.3-10.4
		c0-0.5,0.3-1.1,0.9-1c0.3,0.1,0.6,0.6,0.7,1C186.8,139.9,186.8,140.6,186.8,141.2z"/>
	<path class="st113" d="M188.4,145.4c-1-1.2-1.8-2.5-1.5-4.2C187.6,142.6,188.3,143.9,188.4,145.4z"/>
	<path class="st80" d="M319.3,334.2c0,8.3,0,16.7,0.1,25c0,2-0.7,2.8-2.7,2.7c-4.2-0.1-8.5-0.1-12.8,0c-1.9,0.1-2.3-0.7-2.3-2.4
		c0.1-4.1,0-8.2,0.1-12.2c1.1-1,0.9-2.3,1-3.6c0.2-3.1-0.5-6.2,0.5-9.3c0.9-2.6,2.3-3.6,4.7-2.6c2.1,0.9,4.2,0.9,6.3,0.8
		C316.2,332.5,317.9,333,319.3,334.2z"/>
	<path class="st21" d="M371.1,131.3c0.1,0.3,0.1,0.7,0.2,1c2.8,4,1,7.6-4,8.6c-2.5,0.5-4.5-0.5-6.8-0.6c-2.7-0.8-5.3-1.6-8-2.4
		c-0.6-0.2-1.6-0.1-1.7-1c-0.1-0.8,0.7-1.1,1.3-1.4c4.9-2.8,10-5.1,15.6-6.2C369.7,128.7,370,130.6,371.1,131.3L371.1,131.3z"/>
	<path class="st114" d="M364.2,106.4c0,0.8,0,1.5-0.7,2.1c-4.2,3.2-8.7,5.8-14.1,6.5c-0.8,0.1-1.7,0.4-2.1-0.5
		c-0.5-1.1,0.7-1.2,1.3-1.5c5-1.9,9.5-4.5,13.6-7.8c0.4-0.3,0.9-1,1.5-0.7C364.6,104.9,364.1,105.8,364.2,106.4z"/>
	<path d="M276.1,86.4c0.1-1.2,0.9-0.9,1.7-0.9c2.6,0,5.1,0,7.7-0.1c1.1,0,2.3-0.1,2.6-1.5c2.5,0,5,0,7.8,0
		C292.8,86.5,291.2,86.7,276.1,86.4z"/>
	<path d="M335.6,83.9c0.3,0,0.7,0,1,0c1,1.2,2.5,1.1,3.8,1.4c1.4,0.3,2.1,0.9,2.3,2.5c-2.8-0.2-5.5-0.4-8.1-1.2
		c-0.6-0.2-1.2-0.1-1.6-0.7c-0.4-0.5-1.4-0.7-1.2-1.5c0.3-0.9,1.2-0.4,1.8-0.5C334.2,83.8,334.9,83.9,335.6,83.9z"/>
	<path d="M315.3,83.6c-2.8-0.2-5.1,1.9-8.1,1.1c-1.6-0.5-3.4-0.2-5.2-0.3c-0.6,0-1.1-0.2-1.2-0.8c-0.1-0.6,0.4-0.7,0.8-0.7
		c4.5,0,9,0,13.5,0C315.3,83.1,315.3,83.4,315.3,83.6z"/>
	<path d="M325.7,82.3c0.2,0,0.3,0,0.5,0c1,1.2,3.1-0.2,3.8,1.8c-1.6,1.2-3.5,0.8-5.4,0.8c-0.9,0-1.9-0.1-2-1.2c-0.1-1.3,1-1.4,2-1.4
		C325,82.3,325.3,82.3,325.7,82.3z"/>
	<path d="M357.6,106.7c-0.6,0.1-1.1-0.1-0.9-0.6c0.3-0.9,1-1.4,2-1.3c0.5,0,1.3,0,1.2,0.6C359.6,106.6,358.2,106.2,357.6,106.7z"/>
	<path class="st63" d="M371.1,131.3c-1.3-0.4-1.7-2-3.2-2.1C370,128.3,370.3,130.2,371.1,131.3z"/>
	<path d="M411.8,307.4c0.4-1,1.3-0.9,2.2-0.9c5.1,0.1,10.3,0.3,15.4,0.2c1.9,0,2.3,0.8,2.3,2.5c0,6.4,0.2,12.9,0.3,19.3
		c0.1,11.2,0.1,22.4,0.2,33.5c0.1,14.2,0.3,28.4,0.5,42.7c0,0.7,0.4,1.7-0.4,2.1c-0.9,0.3-1.3-0.7-1.9-1.1c-1.1-0.9-1.6-2.4-3-3.1
		c-0.7,0.2-1.2-0.3-1.7-0.6c-3.1-1.2-6.3-1-9.5-1.2c-3.9-0.3-4.6-0.8-4.6-4.6c0-10.6-0.4-21.2,0.1-31.8c0.8-18.5,0.1-36.9,0.4-55.4
		C412,308.4,412,307.9,411.8,307.4z"/>
	<path class="st9" d="M426.7,401.5c0.2,0.3,0.4,0.7,0.6,1c0.1,0.4,0.3,0.8,0.4,1.2c0.3,0.6,1.4,1,0.7,1.6c-0.8,0.7-1.7,0-2.1-0.8
		c-1.2-2.2-3-2.3-4.8-1.4c-3.7,1.9-7.5,1.2-11.1,0.4c-4.5-1-9-0.4-13.5-0.5c-1.5,0-1.8,1.4-2,2.6c-0.2,0.9,0.4,1.9-0.7,2.6
		c-0.7-0.7-0.3-1.5-0.3-2.2c0-7.4-0.1-14.7,0-22.1c0.1-7.8-1-15.6-0.5-23.4c0.5,0.4,0.3,1.3,1.6,1.3c5.4-0.1,10.7,0,16.1,0
		c0.1,0,0.3-0.2,0.4-0.3c0.7,0.8,0.4,1.8,0.4,2.7c0,10.9,0,21.8,0,32.8c0,2.7,0.3,2.9,3,3C418.9,400.5,422.8,400.8,426.7,401.5z"/>
	<path class="st110" d="M433.1,362.9c5.7-0.8,11.4-0.7,17.1,0c0,13.2,0,26.4,0,40c-1.7-2.2-1.6-4.6-2.4-6.7c-0.4-1,0-2.5-1.6-2.5
		c-1.7,0-3.5-0.6-4.7,1.3c-0.5,0.9-1.2,1.7-1.8,2.5c-0.4,0.6-1.1,1.2-1.7,1c-2.1-0.8-3,0.4-4.1,2.8
		C432.7,388,433.2,375.4,433.1,362.9z"/>
	<path class="st110" d="M432.7,349.3c0.9,4.3,0.2,8.7,0.4,13.1C432.1,358,432.8,353.6,432.7,349.3z"/>
	<path class="st115" d="M210.9,272.8c-4.9,3.7-10.4,4.8-15.9,3.2c-9.3-2.6-18.3-2.1-27.5,0c-0.3,0.1-0.7,0.1-1,0.1
		c-0.1,0-0.2-0.1-0.3-0.2c0.3-1.2,1.5-1.6,2.4-2.1c8.3-4.7,17.1-5.7,26.1-2.6c4.8,1.7,9.6,2,14.6,1.1
		C209.6,272.3,210.2,272.1,210.9,272.8z"/>
	<path class="st116" d="M582.3,324.8c-2.3,14.3-8.5,26-21.6,34.2c-0.3-2.3-0.6-3.8-0.8-5.4c-0.2-2.8-1.2-5.2-2.9-7.4
		c-0.9-1.3-1.7-2.6-1.9-4.2c-0.6-0.9-1.1-1.9-1.7-2.9c2.9-0.4,5.4-1.8,7.5-3.7c2.2-2,4.9-3.1,6.8-5.5c2.4-2.9,2.8-6.6,4.3-9.9
		c0.4-0.8,0.4-1.8,1.6-2.1c1.4-0.3,2.9-0.7,3-2.6c0-0.5,0.9-0.4,1.4-0.5c0.3,0,0.7,0,1,0c0.2,1.3,0.6,2.4,2.2,2.7
		c0.8,0.2,1.2,0.9,1.2,1.8C582.5,321.3,582.9,323.1,582.3,324.8z"/>
	<path class="st116" d="M541.1,333.1c0.8-2.2,2.4-3.5,4.6-4.2c0.3,0.2,1.2,0.3,0.7,0.6c-1.6,1.3-3,2.7-4.4,4.2
		C541.4,334.5,541.2,333.6,541.1,333.1z"/>
	<path class="st117" d="M554.1,326.4c-0.4,0-0.9,0-1.3-0.1c-3.4-0.5-3.8-1.6-1.8-4.6C551.2,323.9,553.3,324.8,554.1,326.4z"/>
	<path class="st118" d="M21.4,334.8c-2.9-6-4.7-12.2-3.2-18.9c0.2-0.8,0.3-1.5,1.1-1.9c2-0.3,4.1-0.7,6.1-1c1.5-0.2,2.7,0.4,2.8,2
		c0.4,8.6,6.5,13,12.8,17.3c0.6,0.4,1.3,0.8,1.9,1.3c1.5,1.2,1.2,2.3-0.3,3c-5,2.4-10.3,3.2-15.8,2.8c-1.7-0.1-2.4-1.6-3.4-2.6
		C22.7,336.1,22.4,335.1,21.4,334.8z"/>
	<path class="st0" d="M54.7,313.7c1.2-2.7-1.2-3.6-2.2-5.1c-0.6-0.9-1.1-0.8-1.8-0.2c-1.4,1.1-2.9,2.3-4.9,1.4
		c-0.4-0.2-0.9-0.1-1.1,0.4c-0.1,0.3-0.1,0.7,0,1c0.3,0.6,0.9,0.4,1.4,0.2c0.5-0.2,1.1-0.6,1.6,0.1c0.4,0.7,0.3,1.2-0.2,1.9
		c-1.2,1.5-1.1,3.2-0.5,4.9c0.3,0.9,0.8,1.8-0.3,2.5c-1.2,0.8-2-0.1-2.7-0.8c-2.6-2.6-4.4-2.2-5.6,1.4c-0.7,2.2-1.8,2.5-3.6,1.1
		c-2.6-2-4.5-4.5-5-7.8c-0.2-1.6,0.2-2.8,1.9-3.2c2.2-0.6,4.5-1.1,6.8-1.6c0.6-0.1,1.4-0.2,1.7,0.7c0.6,1.6,1.2,1.2,1.6-0.1
		c0.5-1.4,1.3-2.7,0.8-4.5c-0.4-1.3,2.7-4.7,4.4-5.3c2.1-0.6,2.6,1.1,3.4,2.4c0.6,1.1,1.3,2,2.7,2c1.8,0.1,2.8,1.6,2.6,3
		C55.5,309.9,55.5,311.8,54.7,313.7z"/>
	<path class="st118" d="M24.7,310.3c1.1-0.9,2.4-0.3,3.6-0.6c0.4,0.1,1,0.2,0.3,0.6C27.2,311,25.9,310.9,24.7,310.3z"/>
	<path class="st119" d="M539.5,372.8c0.3-0.4,0.6-0.8,0.8-1.2c-0.7-0.7-1.6,0.7-2.1-0.2c-0.5-0.8,0.2-1.6,0.6-2.4
		c0.3-0.6,0.6-1.2,0.9-1.8c0.3-0.2,0.6-0.4,0.9-0.6c0,0.8-0.1,1.5,0.4,2.2C542.9,371.4,542.9,371.6,539.5,372.8z"/>
	<path class="st21" d="M32.9,355.6c1.1-1.3,2.4-0.1,3.6-0.4c1.3,0.8,3.1,0.4,4.3,1.4c-2.4,0.4-4.6-1.1-7.4-0.6
		c3.2,0.9,3.1,2.5,1.5,4.5c-0.3,0.4-0.5,1.1-0.3,1.4c1.6,3.7,0.3,7.6,0.9,11.4C33,367.7,33,361.6,32.9,355.6z"/>
	<path class="st21" d="M40.8,356.6c0.4,0,1-0.2,1.3,0.1c4.4,3.8,9.9,3.7,15.3,4.3c0.2,0,0.4,0.2,0.7,0.4
		C51.8,361.3,45.7,360.9,40.8,356.6z"/>
	<path class="st120" d="M255.8,178.4c-1.9-0.2-2.5-2.1-3.5-3.5c-0.4-0.6,0.3-1,1-1.2c4.9-1.6,9.9-3.3,14.8-4.9
		c1.1-0.4,2.1-0.3,2.6,1c0.4,0.9,0.5,1.9-0.6,2.5c-4.4,2.1-8.7,4.1-13.1,6.2C256.7,178.4,256.4,178.3,255.8,178.4z"/>
	<path class="st0" d="M582.3,324.8c0-1.1-0.1-2.2,0-3.4c0.1-2,0-3.4-2.7-3.6c-2.6-0.2-0.8-1.8-0.5-2.9c3.7,0.6,3.8,0.6,3.6,4.3
		C582.8,321.1,583.4,323.1,582.3,324.8z"/>
	<path class="st22" d="M552.6,401.3c-0.5,0.8-0.3,2.3-1.8,2.6c-0.5,0.1-1.3-0.3-1.1-1.1c0.3-1.1,0.5-2.5,2-2.7
		C552.4,400,552.5,400.5,552.6,401.3z"/>
	<path class="st22" d="M53.8,404.1c0.2,0.2,0.3,0.4,0.5,0.6c0.9,0.8,2.7,0,2.9,1.2c0.4,1.7,0.3,3.5,0.1,5.2c-0.1,1.5-2.1,2-3.7,1
		c-2.4-1.4-3.9-3.3-3.5-6.4c0.1-0.8,0-1.7,0-2.7C51.5,403,52.4,404.5,53.8,404.1C53.8,404.1,53.8,404.1,53.8,404.1z"/>
	<path d="M265.6,82.8c-0.2,0.5,0.6,1.3-0.3,1.5c-1.3,0.3-2.5,0-4.1-1.5C263.1,82.8,264.4,82.8,265.6,82.8
		C265.6,82.8,265.6,82.8,265.6,82.8z"/>
	<path class="st121" d="M267.2,108.4c5.6,2,11.1,4.4,16.5,6.9c1.3,0.6,2.5,1.1,3.8,1.5c1.4,1.2,3.1,1.8,5,2.2c1,0.2,2,0.6,2.9,1.1
		c0.9,0.5,2,1,1.7,2.3c-0.3,1.2-1.3,1.6-2.4,1.7c-3,0.3-6.1,0.6-9.1-0.2c-8.3-2.2-16.5-4.9-23.6-9.9c-0.6-0.4-1.2-1.1-2.1-0.9
		c-0.3-0.2-0.7-0.4-1-0.5c-2.2-2.4-5.1-3.8-7.8-5.6c-1.5-1-3.9-2.2-3.1-3.9c0.7-1.5,3.2-0.4,5-0.3
		C258.4,103,262.8,105.6,267.2,108.4z"/>
	<path class="st31" d="M259.9,113c1.1-1,2,0,2.7,0.5c7.1,4.9,15.2,7.6,23.5,9.7c2.8,0.7,5.7,0.3,8.6,0.2c0.8,0,1.9-0.4,2-1.4
		c0.1-1-0.9-1.4-1.6-1.8c-1.4-0.8-2.9-1.1-4.4-1.4c-1.3-0.3-2.5-0.8-3.1-2.1c2.5,0.9,5,1.8,7.5,2.8c2.2,0.9,3,2.1,1.7,4.6
		c-1.1,2.3-1.9,4.6-3.9,6.3c-0.8,0.7-1.6,1-2.6,0.9c-7.1-0.8-13.3-3.5-18.4-8.5C268.3,119.2,263.8,116.4,259.9,113z"/>
	<path class="st122" d="M251,119.8c2.5-5.5,2.5-5.5,7.3-1.9c0.9,0.7,1.8,1.3,2.7,2c2.3,1.8,2.3,1.8,0.5,4.1l0,0
		c-1.1,1.6-2,3.2-1.8,5.3c0.1,1.3-0.7,1.5-1.7,1.1c-2.6-1.2-5.1-2.6-7.4-4.3c-0.9-0.6-1-1.5-0.8-2.6
		C250,122.2,250.6,121.1,251,119.8z"/>
	<path class="st123" d="M251,119.8c0,0.1,0.1,0.2,0.1,0.3c-1,5.4-1,5.4,3.9,8c1.3,0.7,2.5,1.4,4,2.1c0.8-2.2,0-4.8,2.5-6.2
		c-1.1,2.8-2.3,5.6-1,8.7c0.4,1.1-0.4,1.3-1.2,1.4c-3.2,0.3-6.4,0.7-9.5,1c-0.7,0.1-1.3,0-1.3-0.8
		C248.3,129.3,248.2,124.3,251,119.8z"/>
	<path class="st124" d="M267.2,108.4c-3-0.9-5.3-3.4-8.3-4.1c-3.5-0.8-6.9-1.9-10.8-1.6c1.1,3,3.9,3.8,6,5.3c1.8,1.3,4,2.1,4.8,4.4
		c-3.3-1.9-6.6-3.7-9.7-5.8c-1.3-0.9-2.8-1.4-4-2.4c-0.5-0.4-1-0.8-0.8-1.5c0.1-0.5,0.6-0.6,1-0.6
		C253.4,101.8,261,102.7,267.2,108.4z"/>
	<path class="st125" d="M269.5,131c-0.2,2-1.2,3-3.1,3c-2,0-3.1-1.2-3.1-3.1c0-1.9,1.2-2.8,3-2.8C268.3,128,269.2,129.2,269.5,131z"
		/>
	<path class="st126" d="M284,135.5c-0.8,1.1-1.2,2.4-3,1.8c-1.1-0.4-2.1-0.6-3.2-1c-0.6-0.2-1.6-0.3-1.3-1.2
		c0.3-0.9,0.7-2.4,1.8-2.2c1.8,0.3,3.5,1.3,5.3,2C283.8,135,283.8,135.3,284,135.5z"/>
	<path class="st123" d="M261.4,124c0.9-1.5,1.1-2.9-0.5-4.1C264.1,121.3,264.1,121.6,261.4,124z"/>
	<path class="st127" d="M312,206.4c6-0.9,12.1-0.8,18.2-1.3c2.7-0.2,1.9,2,2.3,3.2c0.5,1.4-1,1.3-1.8,1.5
		c-22.3,5-43.8,12.4-63.8,23.6c-2.7,1.5-5.3,3-7.8,4.7c-1.6,1.1-1.7,0.5-2.1-1c-0.7-2.8-0.1-4.4,2.8-5.6c6.1-2.6,12.1-5.5,17.8-8.9
		c0.3-0.2,0.7-0.2,1-0.1c2.9,0,5.4-1.2,7.9-2.3c1-0.5,2.1-1.1,3.2-1.2c1.9-0.1,3.6-0.8,5.3-1.6c8.8-2.6,17.8-4.6,26.7-6.8
		c2.5-0.6,5-1.4,7.6-1.9c0.5-0.1,1.1-0.3,1.2-0.9c0-0.8-0.7-0.9-1.3-1c-1.9-0.1-3.8-0.2-5.7,0.1c-3,0.5-6.1,0.1-9.1,0.7
		c-0.8,0.2-1.6,0-2.2-0.5C311.9,206.9,311.8,206.6,312,206.4z"/>
	<path class="st128" d="M312,206.4c0,0.2,0,0.4,0,0.5c-2.1,1.4-4.5,1.1-6.8,1.3c-11,0.7-21.9,2.3-32.8,3.9c-1.4,0.2-3.1,0.3-3.5,2.1
		c-0.5,2,0,3.8,1.4,5.3c0.7,0.8,1.8,1.1,2.5,1.8c0.5,0.9-0.2,0.9-0.8,1c-1,0.2-1.9,0.5-2.9,0.7c-4.4,1.3-8.8,2.5-13.2,3.8
		c-2,0.6-2.1-0.2-1.6-1.7c1.2-3.7,2.8-7.1,4.8-10.3c0.7-1.1,1.8-1.5,3-1.8c9.5-2.6,19.2-3.9,28.9-4.9C298,207.4,305,206.5,312,206.4
		z"/>
	<path class="st129" d="M269.2,223.1c1.3-0.5,2.6-1,3.8-1.4c1.7-1.6,4-1.7,6.2-2.2c0.4,0.1,0.8,0.2,1.1,0.6
		C276.9,222.2,273,222.5,269.2,223.1z"/>
	<path class="st129" d="M278.7,222.6c-0.3,0-0.7-0.1-1-0.1c0.8-1.3,3.1-0.8,3.6-2.6c0.4-1.5,1.9-1.2,2.8-1.7
		c0.2-0.1,0.5-0.1,0.7-0.1c1.2,0.2,0.9,0.9,0.5,1.7c-0.2,0.3-0.5,0.5-0.8,0.7C282.5,221.1,280.9,222.8,278.7,222.6z"/>
	<path class="st130" d="M284.4,218.4c-0.8,1-2.3,0.7-3.2,1.5c-0.3,0.1-0.6,0.1-0.9,0.2c-0.4,0-0.7-0.1-1.1-0.1
		C280.3,218.1,281.9,217.6,284.4,218.4z"/>
	<path class="st131" d="M243.2,164.7c-2.1,0.3-2.2-1.5-2.6-2.5c-0.5-1.3,0.9-1.2,1.6-1.4c5.3-1.4,10.7-2.5,16-4
		c1.4-0.4,2.2-0.3,2.6,1.1c0.4,1.4,0,2.4-1.5,2.8c-3.9,1-7.9,2-11.8,3C246,164,244.5,164.4,243.2,164.7z"/>
	<path class="st132" d="M309.4,72.3c-3.1,0.2-6.1,1.6-9.8,0.9c3.1-2.3,6.3-3.6,9.4-4.9c5.5-1.4,11.1-2.6,17.2-0.5
		C320.4,69.8,314.8,70.7,309.4,72.3z"/>
	<path class="st14" d="M426.7,401.5c-4.5-0.4-8.9-0.7-13.4-1.1c-1.8-0.1-1.7-1.4-1.7-2.7c0-6.7,0-13.5,0-20.2
		c0-5.3-0.1-10.6-0.1-15.8c0-15.9,0-31.8,0-47.7c0.1-2.2,0.2-4.4,0.2-6.6c0.5,1.3,0.3,2.6,0.3,3.9c0.1,28.4,0.1,56.8,0.1,85.2
		c0,2.4,0.6,3.2,3.1,3.4C419.1,400.2,423.1,400,426.7,401.5z"/>
	<path class="st133" d="M284.4,218.4c-1.8,0.2-3.7,0.4-5.2,1.6c-2,0.6-4,1.4-6.1,1.7c-3.3-0.8-5-2.6-5.2-5.9c-0.1-2,0.2-3.8,3-4.2
		c11.5-1.8,23.1-3.4,34.8-4.1c2.2-0.1,4.3-0.4,6.5-0.6c5.7-0.3,11.4-0.7,17.1-1c1-0.1,2.1-0.3,2.3,1.3c0.1,1.1,0.2,1.5-1.1,1.9
		c-11.8,2.9-23.7,5.9-35.5,8.8c-1.8,0.4-3.5,1.1-5.2,1.6c-1,0.4-2.1,0.7-3.1,1.1c-0.6,0.3-1.3,0.6-1.9,0.6c-1.1,0-1.1-0.5-0.2-1.1
		c0.2-0.2,0.4-0.4,0.6-0.6c0.5-0.5,1.2-0.8,1.8-1.1c0.4-0.2,1.1-0.1,1.2-0.7c0-0.2-0.6,0-0.9,0.1C286.2,218.4,285.2,218,284.4,218.4
		L284.4,218.4z"/>
	<path class="st134" d="M284.4,220.1c-0.1,0.4-0.5,1,0.5,0.7c0.5-0.1,1.1-0.2,1.6-0.3c-2.1,1.8-5,1.7-7.4,3
		c-0.8,0.4-0.6-0.5-0.5-0.9C280.5,221.6,282.2,220.4,284.4,220.1z"/>
	<path class="st134" d="M289.6,219.5c1.6-1,3.3-1.6,5.2-1.6C293.2,218.9,291.5,219.5,289.6,219.5z"/>
	<path class="st130" d="M287,218.9c-0.7,0.2-1.3,0.4-2,0.6c0.2-0.6,0.1-1-0.6-1.1c0.7-0.7,1.8-0.7,2.6-1c0.4-0.3,0.9-0.3,1,0.1
		C288.3,218.3,287.5,218.6,287,218.9z"/>
	<path class="st134" d="M287,218.9c-0.2-0.5,2-1,0-1.6c0.8-0.6,2.1-0.9,2.3,0.1C289.5,218.5,288,218.8,287,218.9z"/>
</g>
</svg>
